<?xml version="1.0" encoding="UTF-8" standalone="no"?><!DOCTYPE svg PUBLIC "-//W3C//DTD SVG 1.1//EN" "http://www.w3.org/Graphics/SVG/1.1/DTD/svg11.dtd"><svg width="100%" height="100%" viewBox="0 0 3100 2100" version="1.1" xmlns="http://www.w3.org/2000/svg" xmlns:xlink="http://www.w3.org/1999/xlink" xml:space="preserve" xmlns:serif="http://www.serif.com/" style="fill-rule:evenodd;clip-rule:evenodd;stroke-linejoin:round;stroke-miterlimit:2;"><rect id="Bunbunns-1" serif:id="Bunbunns 1" x="0" y="0" width="1000" height="1000" style="fill:#fff;"/><g><path d="M397.569,380c-2.444,0 -4.53,-1.767 -4.932,-4.178c-2.216,-13.294 -9.107,-54.641 -11.667,-70c-0.241,-1.45 0.167,-2.932 1.117,-4.054c0.95,-1.121 2.346,-1.768 3.815,-1.768c31.746,0 180.765,0 180.765,0c58.871,0 106.666,47.796 106.666,106.667c0,40.138 -22.218,75.128 -55.019,93.333c32.801,18.205 55.019,53.195 55.019,93.333c0,58.871 -47.795,106.667 -106.666,106.667l-180.765,0c-1.469,0 -2.865,-0.647 -3.815,-1.768c-0.95,-1.122 -1.358,-2.604 -1.117,-4.054c5.974,-35.839 37.666,-225.996 42.778,-256.667c0.402,-2.411 2.488,-4.178 4.932,-4.178c9.428,0 31.32,0 31.32,0l0.172,0c14.639,-0.093 26.495,-12.006 26.495,-26.666c0,-14.718 -11.949,-26.667 -26.667,-26.667l-62.431,0Zm169.098,0c14.717,0 26.666,11.949 26.666,26.667c0,14.717 -11.949,26.666 -26.666,26.666c-14.718,0 -26.667,-11.949 -26.667,-26.666c0,-14.718 11.949,-26.667 26.667,-26.667Z" style="fill:#d75a56;"/><path d="M367.363,695.822c-0.402,2.411 -2.488,4.178 -4.932,4.178l-9.098,0c-14.717,0 -26.666,-11.949 -26.666,-26.667c0,-14.717 11.949,-26.666 26.666,-26.666c7.335,0 13.982,2.967 18.805,7.766c1.131,1.137 1.646,2.749 1.382,4.332c-1.157,7.06 -4.656,28.052 -6.157,37.057Z" style="fill:#d75a56;"/></g><rect id="Bunbunns-2" serif:id="Bunbunns 2" x="1100" y="0" width="2000" height="1000" style="fill:#fff;"/><g><path d="M1470.9,380c-2.444,0 -4.53,-1.767 -4.932,-4.178c-2.215,-13.294 -9.106,-54.641 -11.666,-70c-0.242,-1.45 0.167,-2.932 1.117,-4.054c0.95,-1.121 2.345,-1.768 3.815,-1.768c31.745,0 180.764,0 180.764,0c58.871,0 106.667,47.796 106.667,106.667c0,40.138 -22.218,75.128 -55.02,93.333c32.802,18.205 55.02,53.195 55.02,93.333c0,58.871 -47.796,106.667 -106.667,106.667l-180.764,0c-1.47,0 -2.865,-0.647 -3.815,-1.768c-0.95,-1.122 -1.359,-2.604 -1.117,-4.054c5.973,-35.839 37.666,-225.996 42.777,-256.667c0.402,-2.411 2.488,-4.178 4.932,-4.178c9.428,0 31.32,0 31.32,0l0.173,0c14.638,-0.093 26.494,-12.006 26.494,-26.666c0,-14.718 -11.949,-26.667 -26.667,-26.667l-62.431,0Zm169.098,0c14.718,0 26.667,11.949 26.667,26.667c0,14.717 -11.949,26.666 -26.667,26.666c-14.718,0 -26.667,-11.949 -26.667,-26.666c0,-14.718 11.949,-26.667 26.667,-26.667Z" style="fill:#d75a56;"/><path d="M1440.7,695.822c-0.401,2.411 -2.487,4.178 -4.932,4.178l-9.097,0c-14.718,0 -26.667,-11.949 -26.667,-26.667c0,-14.717 11.949,-26.666 26.667,-26.666c7.334,0 13.982,2.967 18.804,7.766c1.131,1.137 1.646,2.749 1.382,4.332c-1.157,7.06 -4.656,28.052 -6.157,37.057Z" style="fill:#d75a56;"/></g><g transform="matrix(1,0,0,1,364.682,-2214.72)"><g transform="matrix(125,0,0,125,1640.21,2697.47)"><path d="M0.275,-0.152l0.043,0c0.049,0 0.085,-0.006 0.106,-0.019c0.021,-0.013 0.032,-0.033 0.032,-0.061c0,-0.028 -0.011,-0.048 -0.032,-0.061c-0.021,-0.013 -0.057,-0.019 -0.106,-0.019l-0.043,0l0,0.16Zm0,-0.306l0.036,0c0.061,0 0.092,-0.024 0.092,-0.073c0,-0.049 -0.031,-0.073 -0.092,-0.073l-0.036,0l0,0.146Zm-0.196,-0.296l0.292,0c0.069,0 0.122,0.017 0.158,0.05c0.036,0.033 0.054,0.081 0.054,0.144c0,0.038 -0.007,0.069 -0.02,0.094c-0.014,0.025 -0.035,0.047 -0.063,0.064c0.028,0.005 0.052,0.013 0.072,0.024c0.019,0.011 0.035,0.025 0.048,0.041c0.012,0.016 0.021,0.034 0.026,0.054c0.005,0.02 0.008,0.041 0.008,0.064c0,0.035 -0.006,0.067 -0.018,0.094c-0.013,0.027 -0.03,0.05 -0.052,0.069c-0.023,0.019 -0.05,0.033 -0.082,0.042c-0.032,0.009 -0.068,0.014 -0.108,0.014l-0.315,0l0,-0.754Z" style="fill-rule:nonzero;"/></g><g transform="matrix(125,0,0,125,1726.71,2697.47)"><path d="M0.275,-0.754l0,0.41c0,0.022 0.001,0.044 0.003,0.067c0.001,0.023 0.006,0.044 0.014,0.063c0.009,0.019 0.022,0.034 0.04,0.045c0.018,0.012 0.043,0.018 0.076,0.018c0.033,0 0.058,-0.006 0.075,-0.018c0.018,-0.011 0.031,-0.026 0.04,-0.045c0.009,-0.019 0.014,-0.04 0.015,-0.063c0.002,-0.023 0.003,-0.045 0.003,-0.067l0,-0.41l0.195,0l0,0.437c0,0.117 -0.027,0.203 -0.081,0.257c-0.053,0.054 -0.136,0.081 -0.247,0.081c-0.111,0 -0.194,-0.027 -0.248,-0.081c-0.054,-0.054 -0.081,-0.14 -0.081,-0.257l0,-0.437l0.196,0Z" style="fill-rule:nonzero;"/></g><g transform="matrix(125,0,0,125,1828.58,2697.47)"><path d="M0.079,0l0,-0.754l0.196,0l0.362,0.461l0,-0.461l0.195,0l0,0.754l-0.195,0l-0.362,-0.461l0,0.461l-0.196,0Z" style="fill-rule:nonzero;"/></g><g transform="matrix(125,0,0,125,1942.46,2697.47)"><path d="M0.079,0l0,-0.754l0.196,0l0.362,0.461l0,-0.461l0.195,0l0,0.754l-0.195,0l-0.362,-0.461l0,0.461l-0.196,0Z" style="fill-rule:nonzero;"/></g><g transform="matrix(125,0,0,125,2056.33,2697.47)"><path d="M0.275,-0.152l0.043,0c0.049,0 0.085,-0.006 0.106,-0.019c0.021,-0.013 0.032,-0.033 0.032,-0.061c0,-0.028 -0.011,-0.048 -0.032,-0.061c-0.021,-0.013 -0.057,-0.019 -0.106,-0.019l-0.043,0l0,0.16Zm0,-0.306l0.036,0c0.061,0 0.092,-0.024 0.092,-0.073c0,-0.049 -0.031,-0.073 -0.092,-0.073l-0.036,0l0,0.146Zm-0.196,-0.296l0.292,0c0.069,0 0.122,0.017 0.158,0.05c0.036,0.033 0.054,0.081 0.054,0.144c0,0.038 -0.007,0.069 -0.02,0.094c-0.014,0.025 -0.035,0.047 -0.063,0.064c0.028,0.005 0.052,0.013 0.072,0.024c0.019,0.011 0.035,0.025 0.048,0.041c0.012,0.016 0.021,0.034 0.026,0.054c0.005,0.02 0.008,0.041 0.008,0.064c0,0.035 -0.006,0.067 -0.018,0.094c-0.013,0.027 -0.03,0.05 -0.052,0.069c-0.023,0.019 -0.05,0.033 -0.082,0.042c-0.032,0.009 -0.068,0.014 -0.108,0.014l-0.315,0l0,-0.754Z" style="fill-rule:nonzero;"/></g><g transform="matrix(125,0,0,125,2142.83,2697.47)"><path d="M0.275,-0.754l0,0.41c0,0.022 0.001,0.044 0.003,0.067c0.001,0.023 0.006,0.044 0.014,0.063c0.009,0.019 0.022,0.034 0.04,0.045c0.018,0.012 0.043,0.018 0.076,0.018c0.033,0 0.058,-0.006 0.075,-0.018c0.018,-0.011 0.031,-0.026 0.04,-0.045c0.009,-0.019 0.014,-0.04 0.015,-0.063c0.002,-0.023 0.003,-0.045 0.003,-0.067l0,-0.41l0.195,0l0,0.437c0,0.117 -0.027,0.203 -0.081,0.257c-0.053,0.054 -0.136,0.081 -0.247,0.081c-0.111,0 -0.194,-0.027 -0.248,-0.081c-0.054,-0.054 -0.081,-0.14 -0.081,-0.257l0,-0.437l0.196,0Z" style="fill-rule:nonzero;"/></g><g transform="matrix(125,0,0,125,2244.71,2697.47)"><path d="M0.079,0l0,-0.754l0.196,0l0.362,0.461l0,-0.461l0.195,0l0,0.754l-0.195,0l-0.362,-0.461l0,0.461l-0.196,0Z" style="fill-rule:nonzero;"/></g><g transform="matrix(125,0,0,125,2358.58,2697.47)"><path d="M0.493,-0.561c-0.021,-0.017 -0.043,-0.03 -0.064,-0.038c-0.021,-0.009 -0.042,-0.013 -0.062,-0.013c-0.025,0 -0.046,0.006 -0.062,0.018c-0.016,0.012 -0.024,0.028 -0.024,0.047c0,0.013 0.004,0.024 0.012,0.033c0.008,0.009 0.019,0.016 0.032,0.023c0.013,0.006 0.027,0.011 0.044,0.016c0.016,0.005 0.032,0.01 0.048,0.015c0.064,0.021 0.111,0.05 0.141,0.085c0.029,0.036 0.044,0.083 0.044,0.14c0,0.039 -0.006,0.074 -0.019,0.105c-0.013,0.031 -0.032,0.058 -0.057,0.08c-0.025,0.023 -0.056,0.04 -0.092,0.052c-0.037,0.013 -0.078,0.019 -0.124,0.019c-0.095,0 -0.184,-0.028 -0.265,-0.085l0.084,-0.158c0.029,0.026 0.058,0.045 0.087,0.058c0.029,0.013 0.057,0.019 0.085,0.019c0.032,0 0.056,-0.007 0.072,-0.022c0.015,-0.015 0.023,-0.031 0.023,-0.05c0,-0.011 -0.002,-0.021 -0.006,-0.03c-0.004,-0.008 -0.011,-0.016 -0.02,-0.023c-0.009,-0.007 -0.021,-0.013 -0.036,-0.019c-0.015,-0.006 -0.034,-0.013 -0.055,-0.02c-0.025,-0.008 -0.05,-0.017 -0.074,-0.027c-0.025,-0.009 -0.046,-0.022 -0.065,-0.038c-0.019,-0.016 -0.035,-0.036 -0.046,-0.061c-0.012,-0.024 -0.018,-0.055 -0.018,-0.092c0,-0.037 0.006,-0.071 0.019,-0.102c0.012,-0.03 0.029,-0.056 0.052,-0.078c0.022,-0.021 0.049,-0.038 0.082,-0.05c0.032,-0.012 0.068,-0.018 0.108,-0.018c0.037,0 0.076,0.005 0.117,0.015c0.041,0.011 0.08,0.026 0.117,0.046l-0.078,0.153Z" style="fill-rule:nonzero;"/></g><g transform="matrix(125,0,0,125,2018.33,2826.22)"><path d="M0.4,-0.479c0.047,-0.028 0.07,-0.059 0.07,-0.094c0,-0.019 -0.006,-0.035 -0.019,-0.048c-0.012,-0.014 -0.028,-0.021 -0.047,-0.021c-0.018,0 -0.033,0.006 -0.045,0.018c-0.012,0.012 -0.018,0.027 -0.018,0.045c0,0.024 0.02,0.057 0.059,0.1Zm-0.081,0.164c-0.047,0.029 -0.071,0.059 -0.071,0.088c0,0.011 0.002,0.021 0.007,0.03c0.005,0.009 0.011,0.016 0.019,0.023c0.008,0.006 0.017,0.011 0.027,0.015c0.011,0.003 0.022,0.005 0.034,0.005c0.033,0 0.068,-0.011 0.103,-0.033l-0.119,-0.128Zm0.262,0.027c0.04,-0.038 0.073,-0.074 0.098,-0.108l0.111,0.107c-0.011,0.015 -0.024,0.031 -0.038,0.047c-0.015,0.015 -0.031,0.032 -0.05,0.049l-0.015,0.014l0.168,0.179l-0.244,0l-0.066,-0.069c-0.09,0.06 -0.176,0.09 -0.259,0.09c-0.035,0 -0.068,-0.005 -0.097,-0.016c-0.029,-0.011 -0.055,-0.026 -0.076,-0.045c-0.021,-0.019 -0.038,-0.042 -0.05,-0.068c-0.012,-0.027 -0.018,-0.056 -0.018,-0.087c0,-0.028 0.004,-0.053 0.012,-0.074c0.007,-0.022 0.02,-0.043 0.039,-0.063c0.014,-0.015 0.03,-0.028 0.047,-0.039c0.017,-0.011 0.037,-0.023 0.062,-0.034l0.021,-0.01l-0.013,-0.015c-0.039,-0.049 -0.058,-0.095 -0.058,-0.139c0,-0.029 0.006,-0.057 0.018,-0.082c0.012,-0.025 0.029,-0.047 0.05,-0.066c0.021,-0.018 0.045,-0.032 0.074,-0.042c0.029,-0.011 0.06,-0.016 0.093,-0.016c0.034,0 0.065,0.005 0.094,0.016c0.029,0.01 0.054,0.024 0.075,0.043c0.021,0.019 0.037,0.041 0.049,0.066c0.011,0.025 0.017,0.052 0.017,0.081c0,0.02 -0.002,0.038 -0.007,0.055c-0.005,0.016 -0.012,0.031 -0.023,0.046c-0.011,0.014 -0.026,0.028 -0.043,0.041c-0.018,0.013 -0.04,0.026 -0.066,0.039l0.095,0.1Z" style="fill:#d75a56;fill-rule:nonzero;"/></g><g transform="matrix(125,0,0,125,2167.71,2826.22)"><path d="M0.275,-0.152l0.043,0c0.049,0 0.085,-0.006 0.106,-0.019c0.021,-0.013 0.032,-0.033 0.032,-0.061c0,-0.028 -0.011,-0.048 -0.032,-0.061c-0.021,-0.013 -0.057,-0.019 -0.106,-0.019l-0.043,0l0,0.16Zm0,-0.306l0.036,0c0.061,0 0.092,-0.024 0.092,-0.073c0,-0.049 -0.031,-0.073 -0.092,-0.073l-0.036,0l0,0.146Zm-0.196,-0.296l0.292,0c0.069,0 0.122,0.017 0.158,0.05c0.036,0.033 0.054,0.081 0.054,0.144c0,0.038 -0.007,0.069 -0.02,0.094c-0.014,0.025 -0.035,0.047 -0.063,0.064c0.028,0.005 0.052,0.013 0.072,0.024c0.019,0.011 0.035,0.025 0.048,0.041c0.012,0.016 0.021,0.034 0.026,0.054c0.005,0.02 0.008,0.041 0.008,0.064c0,0.035 -0.006,0.067 -0.018,0.094c-0.013,0.027 -0.03,0.05 -0.052,0.069c-0.023,0.019 -0.05,0.033 -0.082,0.042c-0.032,0.009 -0.068,0.014 -0.108,0.014l-0.315,0l0,-0.754Z" style="fill:#d75a56;fill-rule:nonzero;"/></g><g transform="matrix(125,0,0,125,2254.21,2826.22)"><path d="M0.508,-0.588l-0.233,0l0,0.126l0.22,0l0,0.166l-0.22,0l0,0.13l0.233,0l0,0.166l-0.429,0l0,-0.754l0.429,0l0,0.166Z" style="fill:#d75a56;fill-rule:nonzero;"/></g><g transform="matrix(125,0,0,125,2325.46,2826.22)"><path d="M0.079,0l0,-0.754l0.196,0l0.362,0.461l0,-0.461l0.195,0l0,0.754l-0.195,0l-0.362,-0.461l0,0.461l-0.196,0Z" style="fill:#d75a56;fill-rule:nonzero;"/></g></g><rect id="Bunbunns-3" serif:id="Bunbunns 3" x="0" y="1100" width="1000" height="1000" style="fill:#fff;"/><g><path d="M370.902,1450c-2.444,0 -4.53,-1.767 -4.932,-4.178c-2.628,-15.772 -11.954,-71.724 -15,-90c-0.241,-1.45 0.167,-2.932 1.117,-4.054c0.95,-1.121 2.346,-1.768 3.815,-1.768c36.272,0 227.431,0 227.431,0c73.589,0 133.334,59.745 133.334,133.333c0,50.173 -27.773,93.91 -68.775,116.667c41.002,22.757 68.775,66.494 68.775,116.667c0,73.588 -59.745,133.333 -133.334,133.333l-227.431,0c-1.469,0 -2.865,-0.647 -3.815,-1.768c-0.95,-1.122 -1.358,-2.604 -1.117,-4.054c6.867,-41.198 48.02,-288.12 53.889,-323.333c0.402,-2.411 2.488,-4.178 4.932,-4.178c11.105,0 40.209,0 40.209,0l0.215,-0.001c18.298,-0.116 33.118,-15.007 33.118,-33.333c0,-18.397 -14.936,-33.333 -33.333,-33.333l-79.098,0Zm212.431,0c18.398,0 33.334,14.936 33.334,33.333c0,18.398 -14.936,33.334 -33.334,33.334c-18.397,0 -33.333,-14.936 -33.333,-33.334c0,-18.397 14.936,-33.333 33.333,-33.333Z" style="fill:#d75a56;"/><path d="M334.03,1845.82c-0.402,2.411 -2.488,4.178 -4.932,4.178c-4.938,0 -12.431,0 -12.431,0c-18.398,0 -33.334,-14.936 -33.334,-33.333c0,-18.398 14.936,-33.334 33.334,-33.334c9.446,0 17.98,3.938 24.047,10.259c1.074,1.134 1.554,2.707 1.297,4.247c-1.384,8.402 -6.175,37.147 -7.981,47.983Z" style="fill:#d75a56;"/></g><rect id="Bunbunns-4" serif:id="Bunbunns 4" x="1100" y="1100" width="2000" height="1000" style="fill:#fff;"/><g><path d="M1220.9,1220c-2.444,0 -4.53,-1.767 -4.932,-4.178c-0.483,-2.898 -1.133,-6.798 -1.666,-10c-0.242,-1.45 0.167,-2.932 1.117,-4.054c0.95,-1.121 2.345,-1.768 3.815,-1.768c12.553,0 40.764,0 40.764,0c14.718,0 26.667,11.949 26.667,26.667c0,10.034 -5.555,18.782 -13.755,23.333c8.2,4.551 13.755,13.299 13.755,23.333c0,14.718 -11.949,26.667 -26.667,26.667l-40.764,0c-1.47,0 -2.865,-0.647 -3.815,-1.768c-0.95,-1.122 -1.359,-2.604 -1.117,-4.054c2.202,-13.211 7.533,-45.199 9.444,-56.667c0.402,-2.411 2.488,-4.178 4.932,-4.178l4.696,0c3.66,-0.023 6.624,-3.001 6.624,-6.666c0,-3.68 -2.987,-6.667 -6.667,-6.667l-12.431,0Zm0,-2.5c-1.222,0 -2.265,-0.884 -2.466,-2.089c-0.483,-2.898 -1.133,-6.798 -1.666,-10c-0.121,-0.725 0.083,-1.466 0.558,-2.027c0.475,-0.561 1.173,-0.884 1.908,-0.884c12.553,0 40.764,0 40.764,0c13.338,0 24.167,10.829 24.167,24.167c0,9.094 -5.036,17.022 -12.468,21.147c-0.795,0.441 -1.287,1.278 -1.287,2.186c0,0.908 0.492,1.745 1.287,2.186c7.432,4.125 12.468,12.053 12.468,21.147c0,13.338 -10.829,24.167 -24.167,24.167c0,0 -28.211,0 -40.764,0c-0.735,0 -1.433,-0.323 -1.908,-0.884c-0.475,-0.561 -0.679,-1.302 -0.558,-2.027c2.201,-13.211 7.533,-45.199 9.444,-56.667c0.201,-1.205 1.244,-2.089 2.466,-2.089l4.712,0c5.032,-0.032 9.108,-4.127 9.108,-9.166c0,-5.06 -4.107,-9.167 -9.167,-9.167l-12.431,0Zm39.098,0c-5.059,0 -9.167,4.107 -9.167,9.167c0,5.059 4.108,9.166 9.167,9.166c5.059,0 9.167,-4.107 9.167,-9.166c0,-5.06 -4.108,-9.167 -9.167,-9.167Zm0,2.5c3.679,0 6.667,2.987 6.667,6.667c0,3.679 -2.988,6.666 -6.667,6.666c-3.679,0 -6.667,-2.987 -6.667,-6.666c0,-3.68 2.988,-6.667 6.667,-6.667Z" style="fill:#dc5a54;"/><path d="M1210.55,1296.71c-0.316,1.897 -1.958,3.287 -3.881,3.287c0,0 0,0 0,0c-3.68,0 -6.667,-2.987 -6.667,-6.667c0,-3.679 2.987,-6.666 6.667,-6.666c0,0 0,0 0.001,0c1.383,0 2.696,0.609 3.59,1.664c0.894,1.056 1.278,2.451 1.051,3.815c-0.237,1.422 -0.519,3.116 -0.761,4.567Zm-2.466,-0.411c-0.115,0.691 -0.714,1.198 -1.415,1.198c0,0 0,0 0,0c-2.3,0 -4.167,-1.867 -4.167,-4.167c0,-2.299 1.867,-4.166 4.167,-4.166c0,0 0,0 0,0c0.649,0 1.264,0.285 1.683,0.78c0.419,0.495 0.6,1.149 0.493,1.788l-0.761,4.567Z" style="fill:#dc5a54;"/></g><g transform="matrix(1,0,0,1,-856.251,-1453.22)"><g transform="matrix(41.6667,0,0,41.6667,2172.96,2697.47)"><path d="M0.275,-0.152l0.043,0c0.049,0 0.085,-0.006 0.106,-0.019c0.021,-0.013 0.032,-0.033 0.032,-0.061c0,-0.028 -0.011,-0.048 -0.032,-0.061c-0.021,-0.013 -0.057,-0.019 -0.106,-0.019l-0.043,0l0,0.16Zm0,-0.306l0.036,0c0.061,0 0.092,-0.024 0.092,-0.073c0,-0.049 -0.031,-0.073 -0.092,-0.073l-0.036,0l0,0.146Zm-0.196,-0.296l0.292,0c0.069,0 0.122,0.017 0.158,0.05c0.036,0.033 0.054,0.081 0.054,0.144c0,0.038 -0.007,0.069 -0.02,0.094c-0.014,0.025 -0.035,0.047 -0.063,0.064c0.028,0.005 0.052,0.013 0.072,0.024c0.019,0.011 0.035,0.025 0.048,0.041c0.012,0.016 0.021,0.034 0.026,0.054c0.005,0.02 0.008,0.041 0.008,0.064c0,0.035 -0.006,0.067 -0.018,0.094c-0.013,0.027 -0.03,0.05 -0.052,0.069c-0.023,0.019 -0.05,0.033 -0.082,0.042c-0.032,0.009 -0.068,0.014 -0.108,0.014l-0.315,0l0,-0.754Z" style="fill-rule:nonzero;"/></g><g transform="matrix(41.6667,0,0,41.6667,2201.79,2697.47)"><path d="M0.275,-0.754l0,0.41c0,0.022 0.001,0.044 0.003,0.067c0.001,0.023 0.006,0.044 0.014,0.063c0.009,0.019 0.022,0.034 0.04,0.045c0.018,0.012 0.043,0.018 0.076,0.018c0.033,0 0.058,-0.006 0.075,-0.018c0.018,-0.011 0.031,-0.026 0.04,-0.045c0.009,-0.019 0.014,-0.04 0.015,-0.063c0.002,-0.023 0.003,-0.045 0.003,-0.067l0,-0.41l0.195,0l0,0.437c0,0.117 -0.027,0.203 -0.081,0.257c-0.053,0.054 -0.136,0.081 -0.247,0.081c-0.111,0 -0.194,-0.027 -0.248,-0.081c-0.054,-0.054 -0.081,-0.14 -0.081,-0.257l0,-0.437l0.196,0Z" style="fill-rule:nonzero;"/></g><g transform="matrix(41.6667,0,0,41.6667,2235.75,2697.47)"><path d="M0.079,0l0,-0.754l0.196,0l0.362,0.461l0,-0.461l0.195,0l0,0.754l-0.195,0l-0.362,-0.461l0,0.461l-0.196,0Z" style="fill-rule:nonzero;"/></g><g transform="matrix(41.6667,0,0,41.6667,2273.71,2697.47)"><path d="M0.079,0l0,-0.754l0.196,0l0.362,0.461l0,-0.461l0.195,0l0,0.754l-0.195,0l-0.362,-0.461l0,0.461l-0.196,0Z" style="fill-rule:nonzero;"/></g><g transform="matrix(41.6667,0,0,41.6667,2311.67,2697.47)"><path d="M0.275,-0.152l0.043,0c0.049,0 0.085,-0.006 0.106,-0.019c0.021,-0.013 0.032,-0.033 0.032,-0.061c0,-0.028 -0.011,-0.048 -0.032,-0.061c-0.021,-0.013 -0.057,-0.019 -0.106,-0.019l-0.043,0l0,0.16Zm0,-0.306l0.036,0c0.061,0 0.092,-0.024 0.092,-0.073c0,-0.049 -0.031,-0.073 -0.092,-0.073l-0.036,0l0,0.146Zm-0.196,-0.296l0.292,0c0.069,0 0.122,0.017 0.158,0.05c0.036,0.033 0.054,0.081 0.054,0.144c0,0.038 -0.007,0.069 -0.02,0.094c-0.014,0.025 -0.035,0.047 -0.063,0.064c0.028,0.005 0.052,0.013 0.072,0.024c0.019,0.011 0.035,0.025 0.048,0.041c0.012,0.016 0.021,0.034 0.026,0.054c0.005,0.02 0.008,0.041 0.008,0.064c0,0.035 -0.006,0.067 -0.018,0.094c-0.013,0.027 -0.03,0.05 -0.052,0.069c-0.023,0.019 -0.05,0.033 -0.082,0.042c-0.032,0.009 -0.068,0.014 -0.108,0.014l-0.315,0l0,-0.754Z" style="fill-rule:nonzero;"/></g><g transform="matrix(41.6667,0,0,41.6667,2340.5,2697.47)"><path d="M0.275,-0.754l0,0.41c0,0.022 0.001,0.044 0.003,0.067c0.001,0.023 0.006,0.044 0.014,0.063c0.009,0.019 0.022,0.034 0.04,0.045c0.018,0.012 0.043,0.018 0.076,0.018c0.033,0 0.058,-0.006 0.075,-0.018c0.018,-0.011 0.031,-0.026 0.04,-0.045c0.009,-0.019 0.014,-0.04 0.015,-0.063c0.002,-0.023 0.003,-0.045 0.003,-0.067l0,-0.41l0.195,0l0,0.437c0,0.117 -0.027,0.203 -0.081,0.257c-0.053,0.054 -0.136,0.081 -0.247,0.081c-0.111,0 -0.194,-0.027 -0.248,-0.081c-0.054,-0.054 -0.081,-0.14 -0.081,-0.257l0,-0.437l0.196,0Z" style="fill-rule:nonzero;"/></g><g transform="matrix(41.6667,0,0,41.6667,2374.46,2697.47)"><path d="M0.079,0l0,-0.754l0.196,0l0.362,0.461l0,-0.461l0.195,0l0,0.754l-0.195,0l-0.362,-0.461l0,0.461l-0.196,0Z" style="fill-rule:nonzero;"/></g><g transform="matrix(41.6667,0,0,41.6667,2412.42,2697.47)"><path d="M0.493,-0.561c-0.021,-0.017 -0.043,-0.03 -0.064,-0.038c-0.021,-0.009 -0.042,-0.013 -0.062,-0.013c-0.025,0 -0.046,0.006 -0.062,0.018c-0.016,0.012 -0.024,0.028 -0.024,0.047c0,0.013 0.004,0.024 0.012,0.033c0.008,0.009 0.019,0.016 0.032,0.023c0.013,0.006 0.027,0.011 0.044,0.016c0.016,0.005 0.032,0.01 0.048,0.015c0.064,0.021 0.111,0.05 0.141,0.085c0.029,0.036 0.044,0.083 0.044,0.14c0,0.039 -0.006,0.074 -0.019,0.105c-0.013,0.031 -0.032,0.058 -0.057,0.08c-0.025,0.023 -0.056,0.04 -0.092,0.052c-0.037,0.013 -0.078,0.019 -0.124,0.019c-0.095,0 -0.184,-0.028 -0.265,-0.085l0.084,-0.158c0.029,0.026 0.058,0.045 0.087,0.058c0.029,0.013 0.057,0.019 0.085,0.019c0.032,0 0.056,-0.007 0.072,-0.022c0.015,-0.015 0.023,-0.031 0.023,-0.05c0,-0.011 -0.002,-0.021 -0.006,-0.03c-0.004,-0.008 -0.011,-0.016 -0.02,-0.023c-0.009,-0.007 -0.021,-0.013 -0.036,-0.019c-0.015,-0.006 -0.034,-0.013 -0.055,-0.02c-0.025,-0.008 -0.05,-0.017 -0.074,-0.027c-0.025,-0.009 -0.046,-0.022 -0.065,-0.038c-0.019,-0.016 -0.035,-0.036 -0.046,-0.061c-0.012,-0.024 -0.018,-0.055 -0.018,-0.092c0,-0.037 0.006,-0.071 0.019,-0.102c0.012,-0.03 0.029,-0.056 0.052,-0.078c0.022,-0.021 0.049,-0.038 0.082,-0.05c0.032,-0.012 0.068,-0.018 0.108,-0.018c0.037,0 0.076,0.005 0.117,0.015c0.041,0.011 0.08,0.026 0.117,0.046l-0.078,0.153Z" style="fill-rule:nonzero;"/></g><g transform="matrix(41.6667,0,0,41.6667,2299,2740.38)"><path d="M0.4,-0.479c0.047,-0.028 0.07,-0.059 0.07,-0.094c0,-0.019 -0.006,-0.035 -0.019,-0.048c-0.012,-0.014 -0.028,-0.021 -0.047,-0.021c-0.018,0 -0.033,0.006 -0.045,0.018c-0.012,0.012 -0.018,0.027 -0.018,0.045c0,0.024 0.02,0.057 0.059,0.1Zm-0.081,0.164c-0.047,0.029 -0.071,0.059 -0.071,0.088c0,0.011 0.002,0.021 0.007,0.03c0.005,0.009 0.011,0.016 0.019,0.023c0.008,0.006 0.017,0.011 0.027,0.015c0.011,0.003 0.022,0.005 0.034,0.005c0.033,0 0.068,-0.011 0.103,-0.033l-0.119,-0.128Zm0.262,0.027c0.04,-0.038 0.073,-0.074 0.098,-0.108l0.111,0.107c-0.011,0.015 -0.024,0.031 -0.038,0.047c-0.015,0.015 -0.031,0.032 -0.05,0.049l-0.015,0.014l0.168,0.179l-0.244,0l-0.066,-0.069c-0.09,0.06 -0.176,0.09 -0.259,0.09c-0.035,0 -0.068,-0.005 -0.097,-0.016c-0.029,-0.011 -0.055,-0.026 -0.076,-0.045c-0.021,-0.019 -0.038,-0.042 -0.05,-0.068c-0.012,-0.027 -0.018,-0.056 -0.018,-0.087c0,-0.028 0.004,-0.053 0.012,-0.074c0.007,-0.022 0.02,-0.043 0.039,-0.063c0.014,-0.015 0.03,-0.028 0.047,-0.039c0.017,-0.011 0.037,-0.023 0.062,-0.034l0.021,-0.01l-0.013,-0.015c-0.039,-0.049 -0.058,-0.095 -0.058,-0.139c0,-0.029 0.006,-0.057 0.018,-0.082c0.012,-0.025 0.029,-0.047 0.05,-0.066c0.021,-0.018 0.045,-0.032 0.074,-0.042c0.029,-0.011 0.06,-0.016 0.093,-0.016c0.034,0 0.065,0.005 0.094,0.016c0.029,0.01 0.054,0.024 0.075,0.043c0.021,0.019 0.037,0.041 0.049,0.066c0.011,0.025 0.017,0.052 0.017,0.081c0,0.02 -0.002,0.038 -0.007,0.055c-0.005,0.016 -0.012,0.031 -0.023,0.046c-0.011,0.014 -0.026,0.028 -0.043,0.041c-0.018,0.013 -0.04,0.026 -0.066,0.039l0.095,0.1Z" style="fill:#d75a56;fill-rule:nonzero;"/></g><g transform="matrix(41.6667,0,0,41.6667,2348.79,2740.38)"><path d="M0.275,-0.152l0.043,0c0.049,0 0.085,-0.006 0.106,-0.019c0.021,-0.013 0.032,-0.033 0.032,-0.061c0,-0.028 -0.011,-0.048 -0.032,-0.061c-0.021,-0.013 -0.057,-0.019 -0.106,-0.019l-0.043,0l0,0.16Zm0,-0.306l0.036,0c0.061,0 0.092,-0.024 0.092,-0.073c0,-0.049 -0.031,-0.073 -0.092,-0.073l-0.036,0l0,0.146Zm-0.196,-0.296l0.292,0c0.069,0 0.122,0.017 0.158,0.05c0.036,0.033 0.054,0.081 0.054,0.144c0,0.038 -0.007,0.069 -0.02,0.094c-0.014,0.025 -0.035,0.047 -0.063,0.064c0.028,0.005 0.052,0.013 0.072,0.024c0.019,0.011 0.035,0.025 0.048,0.041c0.012,0.016 0.021,0.034 0.026,0.054c0.005,0.02 0.008,0.041 0.008,0.064c0,0.035 -0.006,0.067 -0.018,0.094c-0.013,0.027 -0.03,0.05 -0.052,0.069c-0.023,0.019 -0.05,0.033 -0.082,0.042c-0.032,0.009 -0.068,0.014 -0.108,0.014l-0.315,0l0,-0.754Z" style="fill:#d75a56;fill-rule:nonzero;"/></g><g transform="matrix(41.6667,0,0,41.6667,2377.63,2740.38)"><path d="M0.508,-0.588l-0.233,0l0,0.126l0.22,0l0,0.166l-0.22,0l0,0.13l0.233,0l0,0.166l-0.429,0l0,-0.754l0.429,0l0,0.166Z" style="fill:#d75a56;fill-rule:nonzero;"/></g><g transform="matrix(41.6667,0,0,41.6667,2401.38,2740.38)"><path d="M0.079,0l0,-0.754l0.196,0l0.362,0.461l0,-0.461l0.195,0l0,0.754l-0.195,0l-0.362,-0.461l0,0.461l-0.196,0Z" style="fill:#d75a56;fill-rule:nonzero;"/></g></g><g transform="matrix(1,0,0,1,563.249,-1465.18)"><g transform="matrix(41.6667,0,0,41.6667,2030.83,2697.47)"><path d="M0.275,-0.152l0.043,0c0.049,0 0.085,-0.006 0.106,-0.019c0.021,-0.013 0.032,-0.033 0.032,-0.061c0,-0.028 -0.011,-0.048 -0.032,-0.061c-0.021,-0.013 -0.057,-0.019 -0.106,-0.019l-0.043,0l0,0.16Zm0,-0.306l0.036,0c0.061,0 0.092,-0.024 0.092,-0.073c0,-0.049 -0.031,-0.073 -0.092,-0.073l-0.036,0l0,0.146Zm-0.196,-0.296l0.292,0c0.069,0 0.122,0.017 0.158,0.05c0.036,0.033 0.054,0.081 0.054,0.144c0,0.038 -0.007,0.069 -0.02,0.094c-0.014,0.025 -0.035,0.047 -0.063,0.064c0.028,0.005 0.052,0.013 0.072,0.024c0.019,0.011 0.035,0.025 0.048,0.041c0.012,0.016 0.021,0.034 0.026,0.054c0.005,0.02 0.008,0.041 0.008,0.064c0,0.035 -0.006,0.067 -0.018,0.094c-0.013,0.027 -0.03,0.05 -0.052,0.069c-0.023,0.019 -0.05,0.033 -0.082,0.042c-0.032,0.009 -0.068,0.014 -0.108,0.014l-0.315,0l0,-0.754Z" style="fill-rule:nonzero;"/></g><g transform="matrix(41.6667,0,0,41.6667,2059.67,2697.47)"><path d="M0.275,-0.417l0.037,0c0.039,0 0.068,-0.008 0.089,-0.024c0.021,-0.016 0.031,-0.039 0.031,-0.069c0,-0.03 -0.01,-0.053 -0.031,-0.069c-0.021,-0.016 -0.05,-0.024 -0.089,-0.024l-0.037,0l0,0.186Zm0.431,0.417l-0.244,0l-0.187,-0.29l0,0.29l-0.196,0l0,-0.754l0.305,0c0.042,0 0.079,0.006 0.11,0.018c0.031,0.013 0.057,0.03 0.077,0.051c0.021,0.021 0.036,0.046 0.046,0.074c0.011,0.028 0.016,0.058 0.016,0.09c0,0.057 -0.014,0.104 -0.042,0.14c-0.027,0.035 -0.068,0.059 -0.122,0.072l0.237,0.309Z" style="fill-rule:nonzero;"/></g><g transform="matrix(41.6667,0,0,41.6667,2089.21,2697.47)"><path d="M0.489,-0.28l-0.088,-0.251l-0.088,0.251l0.176,0Zm0.052,0.149l-0.28,0l-0.045,0.131l-0.209,0l0.287,-0.754l0.214,0l0.287,0.754l-0.209,0l-0.045,-0.131Z" style="fill-rule:nonzero;"/></g><g transform="matrix(41.6667,0,0,41.6667,2122.63,2697.47)"><path d="M0.079,0l0,-0.754l0.196,0l0.362,0.461l0,-0.461l0.195,0l0,0.754l-0.195,0l-0.362,-0.461l0,0.461l-0.196,0Z" style="fill-rule:nonzero;"/></g><g transform="matrix(41.6667,0,0,41.6667,2160.58,2697.47)"><path d="M0.275,-0.166l0.045,0c0.034,0 0.064,-0.005 0.091,-0.016c0.027,-0.011 0.049,-0.025 0.068,-0.044c0.018,-0.019 0.032,-0.041 0.041,-0.067c0.01,-0.025 0.015,-0.053 0.015,-0.084c0,-0.03 -0.005,-0.058 -0.015,-0.084c-0.01,-0.026 -0.024,-0.048 -0.042,-0.067c-0.019,-0.019 -0.041,-0.033 -0.068,-0.044c-0.027,-0.011 -0.057,-0.016 -0.09,-0.016l-0.045,0l0,0.422Zm-0.196,-0.588l0.29,0c0.051,0 0.099,0.01 0.144,0.031c0.045,0.021 0.085,0.048 0.118,0.083c0.034,0.034 0.061,0.074 0.08,0.12c0.019,0.045 0.029,0.093 0.029,0.143c0,0.049 -0.01,0.097 -0.029,0.142c-0.019,0.046 -0.045,0.086 -0.079,0.121c-0.033,0.035 -0.073,0.062 -0.118,0.083c-0.045,0.021 -0.093,0.031 -0.145,0.031l-0.29,0l0,-0.754Z" style="fill-rule:nonzero;"/></g><g transform="matrix(41.6667,0,0,41.6667,2193.33,2697.47)"><rect x="0.079" y="-0.754" width="0.196" height="0.754" style="fill-rule:nonzero;"/></g><g transform="matrix(41.6667,0,0,41.6667,2208.08,2697.47)"><path d="M0.079,0l0,-0.754l0.196,0l0.362,0.461l0,-0.461l0.195,0l0,0.754l-0.195,0l-0.362,-0.461l0,0.461l-0.196,0Z" style="fill-rule:nonzero;"/></g><g transform="matrix(41.6667,0,0,41.6667,2246.63,2697.47)"><path d="M0.446,-0.422l0.389,0c0,0.04 -0.002,0.076 -0.005,0.109c-0.003,0.033 -0.01,0.063 -0.02,0.091c-0.014,0.039 -0.033,0.074 -0.057,0.105c-0.024,0.03 -0.052,0.055 -0.084,0.076c-0.033,0.02 -0.068,0.035 -0.107,0.046c-0.039,0.011 -0.079,0.016 -0.122,0.016c-0.059,0 -0.112,-0.01 -0.16,-0.029c-0.049,-0.019 -0.09,-0.046 -0.125,-0.081c-0.035,-0.036 -0.062,-0.078 -0.081,-0.127c-0.019,-0.048 -0.029,-0.103 -0.029,-0.162c0,-0.059 0.01,-0.112 0.029,-0.161c0.019,-0.049 0.046,-0.091 0.081,-0.126c0.035,-0.035 0.077,-0.062 0.126,-0.081c0.049,-0.019 0.104,-0.029 0.165,-0.029c0.079,0 0.148,0.017 0.207,0.051c0.059,0.034 0.106,0.087 0.141,0.158l-0.186,0.077c-0.017,-0.041 -0.04,-0.071 -0.068,-0.089c-0.027,-0.018 -0.059,-0.027 -0.094,-0.027c-0.029,0 -0.056,0.005 -0.08,0.016c-0.024,0.011 -0.045,0.027 -0.062,0.047c-0.017,0.021 -0.03,0.045 -0.04,0.074c-0.009,0.029 -0.014,0.061 -0.014,0.096c0,0.032 0.004,0.062 0.012,0.089c0.009,0.027 0.021,0.051 0.038,0.071c0.017,0.02 0.037,0.035 0.062,0.046c0.025,0.011 0.053,0.017 0.086,0.017c0.019,0 0.038,-0.002 0.056,-0.007c0.018,-0.004 0.034,-0.011 0.048,-0.021c0.015,-0.009 0.027,-0.022 0.036,-0.037c0.009,-0.015 0.016,-0.034 0.019,-0.056l-0.161,0l0,-0.152Z" style="fill-rule:nonzero;"/></g><g transform="matrix(41.6667,0,0,41.6667,2297.46,2697.47)"><path d="M0.446,-0.422l0.389,0c0,0.04 -0.002,0.076 -0.005,0.109c-0.003,0.033 -0.01,0.063 -0.02,0.091c-0.014,0.039 -0.033,0.074 -0.057,0.105c-0.024,0.03 -0.052,0.055 -0.084,0.076c-0.033,0.02 -0.068,0.035 -0.107,0.046c-0.039,0.011 -0.079,0.016 -0.122,0.016c-0.059,0 -0.112,-0.01 -0.16,-0.029c-0.049,-0.019 -0.09,-0.046 -0.125,-0.081c-0.035,-0.036 -0.062,-0.078 -0.081,-0.127c-0.019,-0.048 -0.029,-0.103 -0.029,-0.162c0,-0.059 0.01,-0.112 0.029,-0.161c0.019,-0.049 0.046,-0.091 0.081,-0.126c0.035,-0.035 0.077,-0.062 0.126,-0.081c0.049,-0.019 0.104,-0.029 0.165,-0.029c0.079,0 0.148,0.017 0.207,0.051c0.059,0.034 0.106,0.087 0.141,0.158l-0.186,0.077c-0.017,-0.041 -0.04,-0.071 -0.068,-0.089c-0.027,-0.018 -0.059,-0.027 -0.094,-0.027c-0.029,0 -0.056,0.005 -0.08,0.016c-0.024,0.011 -0.045,0.027 -0.062,0.047c-0.017,0.021 -0.03,0.045 -0.04,0.074c-0.009,0.029 -0.014,0.061 -0.014,0.096c0,0.032 0.004,0.062 0.012,0.089c0.009,0.027 0.021,0.051 0.038,0.071c0.017,0.02 0.037,0.035 0.062,0.046c0.025,0.011 0.053,0.017 0.086,0.017c0.019,0 0.038,-0.002 0.056,-0.007c0.018,-0.004 0.034,-0.011 0.048,-0.021c0.015,-0.009 0.027,-0.022 0.036,-0.037c0.009,-0.015 0.016,-0.034 0.019,-0.056l-0.161,0l0,-0.152Z" style="fill:#d75a56;fill-rule:nonzero;"/></g><g transform="matrix(41.6667,0,0,41.6667,2334.13,2697.47)"><path d="M0.275,-0.754l0,0.41c0,0.022 0.001,0.044 0.003,0.067c0.001,0.023 0.006,0.044 0.014,0.063c0.009,0.019 0.022,0.034 0.04,0.045c0.018,0.012 0.043,0.018 0.076,0.018c0.033,0 0.058,-0.006 0.075,-0.018c0.018,-0.011 0.031,-0.026 0.04,-0.045c0.009,-0.019 0.014,-0.04 0.015,-0.063c0.002,-0.023 0.003,-0.045 0.003,-0.067l0,-0.41l0.195,0l0,0.437c0,0.117 -0.027,0.203 -0.081,0.257c-0.053,0.054 -0.136,0.081 -0.247,0.081c-0.111,0 -0.194,-0.027 -0.248,-0.081c-0.054,-0.054 -0.081,-0.14 -0.081,-0.257l0,-0.437l0.196,0Z" style="fill:#d75a56;fill-rule:nonzero;"/></g><g transform="matrix(41.6667,0,0,41.6667,2368.08,2697.47)"><rect x="0.079" y="-0.754" width="0.196" height="0.754" style="fill:#d75a56;fill-rule:nonzero;"/></g><g transform="matrix(41.6667,0,0,41.6667,2382.83,2697.47)"><path d="M0.275,-0.166l0.045,0c0.034,0 0.064,-0.005 0.091,-0.016c0.027,-0.011 0.049,-0.025 0.068,-0.044c0.018,-0.019 0.032,-0.041 0.041,-0.067c0.01,-0.025 0.015,-0.053 0.015,-0.084c0,-0.03 -0.005,-0.058 -0.015,-0.084c-0.01,-0.026 -0.024,-0.048 -0.042,-0.067c-0.019,-0.019 -0.041,-0.033 -0.068,-0.044c-0.027,-0.011 -0.057,-0.016 -0.09,-0.016l-0.045,0l0,0.422Zm-0.196,-0.588l0.29,0c0.051,0 0.099,0.01 0.144,0.031c0.045,0.021 0.085,0.048 0.118,0.083c0.034,0.034 0.061,0.074 0.08,0.12c0.019,0.045 0.029,0.093 0.029,0.143c0,0.049 -0.01,0.097 -0.029,0.142c-0.019,0.046 -0.045,0.086 -0.079,0.121c-0.033,0.035 -0.073,0.062 -0.118,0.083c-0.045,0.021 -0.093,0.031 -0.145,0.031l-0.29,0l0,-0.754Z" style="fill:#d75a56;fill-rule:nonzero;"/></g><g transform="matrix(41.6667,0,0,41.6667,2415.58,2697.47)"><path d="M0.508,-0.588l-0.233,0l0,0.126l0.22,0l0,0.166l-0.22,0l0,0.13l0.233,0l0,0.166l-0.429,0l0,-0.754l0.429,0l0,0.166Z" style="fill:#d75a56;fill-rule:nonzero;"/></g></g><g transform="matrix(1,0,0,1,358.52,-1234.63)"><g transform="matrix(83.3333,0,0,83.3333,2087.33,2697.47)"><path d="M0.511,-0.588l-0.236,0l0,0.126l0.215,0l0,0.166l-0.215,0l0,0.296l-0.196,0l0,-0.754l0.432,0l0,0.166Z" style="fill-rule:nonzero;"/></g><g transform="matrix(83.3333,0,0,83.3333,2133.08,2697.47)"><path d="M0.275,-0.754l0,0.41c0,0.022 0.001,0.044 0.003,0.067c0.001,0.023 0.006,0.044 0.014,0.063c0.009,0.019 0.022,0.034 0.04,0.045c0.018,0.012 0.043,0.018 0.076,0.018c0.033,0 0.058,-0.006 0.075,-0.018c0.018,-0.011 0.031,-0.026 0.04,-0.045c0.009,-0.019 0.014,-0.04 0.015,-0.063c0.002,-0.023 0.003,-0.045 0.003,-0.067l0,-0.41l0.195,0l0,0.437c0,0.117 -0.027,0.203 -0.081,0.257c-0.053,0.054 -0.136,0.081 -0.247,0.081c-0.111,0 -0.194,-0.027 -0.248,-0.081c-0.054,-0.054 -0.081,-0.14 -0.081,-0.257l0,-0.437l0.196,0Z" style="fill-rule:nonzero;"/></g><g transform="matrix(83.3333,0,0,83.3333,2201,2697.47)"><path d="M0.365,-0.588l0,0.588l-0.196,0l0,-0.588l-0.161,0l0,-0.166l0.518,0l0,0.166l-0.161,0Z" style="fill-rule:nonzero;"/></g><g transform="matrix(83.3333,0,0,83.3333,2245.5,2697.47)"><path d="M0.275,-0.754l0,0.41c0,0.022 0.001,0.044 0.003,0.067c0.001,0.023 0.006,0.044 0.014,0.063c0.009,0.019 0.022,0.034 0.04,0.045c0.018,0.012 0.043,0.018 0.076,0.018c0.033,0 0.058,-0.006 0.075,-0.018c0.018,-0.011 0.031,-0.026 0.04,-0.045c0.009,-0.019 0.014,-0.04 0.015,-0.063c0.002,-0.023 0.003,-0.045 0.003,-0.067l0,-0.41l0.195,0l0,0.437c0,0.117 -0.027,0.203 -0.081,0.257c-0.053,0.054 -0.136,0.081 -0.247,0.081c-0.111,0 -0.194,-0.027 -0.248,-0.081c-0.054,-0.054 -0.081,-0.14 -0.081,-0.257l0,-0.437l0.196,0Z" style="fill-rule:nonzero;"/></g><g transform="matrix(83.3333,0,0,83.3333,2313.42,2697.47)"><path d="M0.275,-0.417l0.037,0c0.039,0 0.068,-0.008 0.089,-0.024c0.021,-0.016 0.031,-0.039 0.031,-0.069c0,-0.03 -0.01,-0.053 -0.031,-0.069c-0.021,-0.016 -0.05,-0.024 -0.089,-0.024l-0.037,0l0,0.186Zm0.431,0.417l-0.244,0l-0.187,-0.29l0,0.29l-0.196,0l0,-0.754l0.305,0c0.042,0 0.079,0.006 0.11,0.018c0.031,0.013 0.057,0.03 0.077,0.051c0.021,0.021 0.036,0.046 0.046,0.074c0.011,0.028 0.016,0.058 0.016,0.09c0,0.057 -0.014,0.104 -0.042,0.14c-0.027,0.035 -0.068,0.059 -0.122,0.072l0.237,0.309Z" style="fill-rule:nonzero;"/></g><g transform="matrix(83.3333,0,0,83.3333,2372.5,2697.47)"><path d="M0.489,-0.28l-0.088,-0.251l-0.088,0.251l0.176,0Zm0.052,0.149l-0.28,0l-0.045,0.131l-0.209,0l0.287,-0.754l0.214,0l0.287,0.754l-0.209,0l-0.045,-0.131Z" style="fill-rule:nonzero;"/></g><g transform="matrix(83.3333,0,0,83.3333,2195.25,2783.3)"><path d="M0.275,-0.152l0.043,0c0.049,0 0.085,-0.006 0.106,-0.019c0.021,-0.013 0.032,-0.033 0.032,-0.061c0,-0.028 -0.011,-0.048 -0.032,-0.061c-0.021,-0.013 -0.057,-0.019 -0.106,-0.019l-0.043,0l0,0.16Zm0,-0.306l0.036,0c0.061,0 0.092,-0.024 0.092,-0.073c0,-0.049 -0.031,-0.073 -0.092,-0.073l-0.036,0l0,0.146Zm-0.196,-0.296l0.292,0c0.069,0 0.122,0.017 0.158,0.05c0.036,0.033 0.054,0.081 0.054,0.144c0,0.038 -0.007,0.069 -0.02,0.094c-0.014,0.025 -0.035,0.047 -0.063,0.064c0.028,0.005 0.052,0.013 0.072,0.024c0.019,0.011 0.035,0.025 0.048,0.041c0.012,0.016 0.021,0.034 0.026,0.054c0.005,0.02 0.008,0.041 0.008,0.064c0,0.035 -0.006,0.067 -0.018,0.094c-0.013,0.027 -0.03,0.05 -0.052,0.069c-0.023,0.019 -0.05,0.033 -0.082,0.042c-0.032,0.009 -0.068,0.014 -0.108,0.014l-0.315,0l0,-0.754Z" style="fill:#dc5a54;fill-rule:nonzero;"/></g><g transform="matrix(83.3333,0,0,83.3333,2252.42,2783.3)"><path d="M0.25,-0.377c0,0.03 0.006,0.058 0.017,0.083c0.011,0.025 0.027,0.047 0.046,0.066c0.019,0.019 0.042,0.033 0.068,0.043c0.025,0.011 0.052,0.016 0.081,0.016c0.029,0 0.056,-0.005 0.081,-0.016c0.026,-0.01 0.049,-0.024 0.069,-0.043c0.019,-0.019 0.035,-0.041 0.046,-0.066c0.011,-0.025 0.017,-0.053 0.017,-0.083c0,-0.03 -0.006,-0.058 -0.017,-0.083c-0.011,-0.025 -0.027,-0.047 -0.047,-0.066c-0.019,-0.019 -0.042,-0.033 -0.068,-0.043c-0.025,-0.011 -0.052,-0.016 -0.081,-0.016c-0.029,0 -0.056,0.005 -0.082,0.016c-0.025,0.01 -0.048,0.024 -0.067,0.043c-0.019,0.019 -0.035,0.041 -0.046,0.066c-0.011,0.025 -0.017,0.053 -0.017,0.083Zm-0.205,0c0,-0.056 0.01,-0.108 0.031,-0.156c0.021,-0.049 0.049,-0.091 0.086,-0.127c0.037,-0.036 0.08,-0.064 0.131,-0.085c0.051,-0.02 0.108,-0.03 0.169,-0.03c0.061,0 0.117,0.01 0.168,0.03c0.051,0.021 0.095,0.049 0.132,0.085c0.037,0.036 0.066,0.078 0.087,0.127c0.021,0.048 0.031,0.1 0.031,0.156c0,0.056 -0.01,0.108 -0.031,0.157c-0.021,0.048 -0.049,0.09 -0.087,0.126c-0.037,0.036 -0.081,0.064 -0.132,0.085c-0.051,0.02 -0.107,0.03 -0.168,0.03c-0.061,0 -0.118,-0.01 -0.169,-0.031c-0.051,-0.02 -0.094,-0.048 -0.131,-0.084c-0.037,-0.036 -0.065,-0.078 -0.086,-0.127c-0.021,-0.048 -0.031,-0.1 -0.031,-0.156Z" style="fill:#dc5a54;fill-rule:nonzero;"/></g><g transform="matrix(83.3333,0,0,83.3333,2329.5,2783.3)"><path d="M0.275,-0.754l0,0.588l0.235,0l0,0.166l-0.431,0l0,-0.754l0.196,0Z" style="fill:#dc5a54;fill-rule:nonzero;"/></g><g transform="matrix(83.3333,0,0,83.3333,2373.83,2783.3)"><path d="M0.275,-0.166l0.045,0c0.034,0 0.064,-0.005 0.091,-0.016c0.027,-0.011 0.049,-0.025 0.068,-0.044c0.018,-0.019 0.032,-0.041 0.041,-0.067c0.01,-0.025 0.015,-0.053 0.015,-0.084c0,-0.03 -0.005,-0.058 -0.015,-0.084c-0.01,-0.026 -0.024,-0.048 -0.042,-0.067c-0.019,-0.019 -0.041,-0.033 -0.068,-0.044c-0.027,-0.011 -0.057,-0.016 -0.09,-0.016l-0.045,0l0,0.422Zm-0.196,-0.588l0.29,0c0.051,0 0.099,0.01 0.144,0.031c0.045,0.021 0.085,0.048 0.118,0.083c0.034,0.034 0.061,0.074 0.08,0.12c0.019,0.045 0.029,0.093 0.029,0.143c0,0.049 -0.01,0.097 -0.029,0.142c-0.019,0.046 -0.045,0.086 -0.079,0.121c-0.033,0.035 -0.073,0.062 -0.118,0.083c-0.045,0.021 -0.093,0.031 -0.145,0.031l-0.29,0l0,-0.754Z" style="fill:#dc5a54;fill-rule:nonzero;"/></g></g><path d="M1540.84,1452.14l0,8.692l-4.573,0l0,-23.698l8.105,0c1.292,0 2.458,0.187 3.5,0.561c1.041,0.375 1.928,0.895 2.661,1.563c0.732,0.667 1.297,1.467 1.693,2.401c0.396,0.933 0.594,1.969 0.594,3.108c0,1.064 -0.198,2.046 -0.594,2.946c-0.396,0.901 -0.961,1.679 -1.693,2.336c-0.733,0.656 -1.62,1.169 -2.661,1.538c-1.042,0.369 -2.208,0.553 -3.5,0.553l-3.532,0Zm0,-3.711l3.532,0c0.651,0 1.216,-0.097 1.693,-0.293c0.478,-0.195 0.876,-0.461 1.196,-0.797c0.32,-0.337 0.559,-0.724 0.717,-1.164c0.157,-0.439 0.236,-0.898 0.236,-1.375c0,-0.554 -0.079,-1.069 -0.236,-1.546c-0.158,-0.478 -0.397,-0.896 -0.717,-1.254c-0.32,-0.358 -0.718,-0.64 -1.196,-0.846c-0.477,-0.206 -1.042,-0.309 -1.693,-0.309l-3.532,0l0,7.584Z" style="fill-rule:nonzero;"/><path d="M1564.02,1451.98l-3.467,0l0,8.854l-4.574,0l0,-23.698l7.943,0c1.313,0 2.501,0.154 3.564,0.464c1.064,0.309 1.972,0.762 2.727,1.359c0.754,0.596 1.334,1.34 1.741,2.23c0.407,0.889 0.61,1.92 0.61,3.092c0,0.846 -0.1,1.609 -0.301,2.287c-0.2,0.678 -0.488,1.286 -0.862,1.823c-0.375,0.537 -0.825,1.006 -1.351,1.408c-0.526,0.401 -1.115,0.748 -1.766,1.041l5.094,9.782l0,0.212l-4.899,0l-4.459,-8.854Zm-3.467,-3.711l3.385,0c1.291,0 2.287,-0.329 2.987,-0.985c0.7,-0.657 1.05,-1.554 1.05,-2.694c0,-1.183 -0.342,-2.102 -1.026,-2.759c-0.683,-0.656 -1.692,-0.984 -3.027,-0.984l-3.369,0l0,7.422Z" style="fill-rule:nonzero;"/><path d="M1576.99,1437.13l13.704,0l0,3.694l-4.622,0l0,16.325l4.622,0l0,3.679l-13.704,0l0,-3.679l4.508,0l0,-16.325l-4.508,0l0,-3.694Z" style="fill-rule:nonzero;"/><path d="M1601.6,1437.13l2.246,8.903l2.555,-8.903l5.681,0l0,23.698l-4.2,0l0,-7.015l0.196,-11.084l-3.109,10.286l-2.262,0l-2.783,-9.847l0.195,10.645l0,7.015l-4.199,0l0,-23.698l5.68,0Z" style="fill-rule:nonzero;"/><path d="M1627.64,1455.88l-7.113,0l-1.4,4.948l-4.817,0l7.763,-23.698l4.151,0l7.617,23.698l-4.818,0l-1.383,-4.948Zm-5.99,-3.89l4.915,0l-2.425,-8.724l-2.49,8.724Z" style="fill-rule:nonzero;"/><path d="M1644.04,1451.98l-3.467,0l0,8.854l-4.574,0l0,-23.698l7.943,0c1.313,0 2.501,0.154 3.564,0.464c1.064,0.309 1.972,0.762 2.727,1.359c0.754,0.596 1.334,1.34 1.741,2.23c0.407,0.889 0.611,1.92 0.611,3.092c0,0.846 -0.101,1.609 -0.302,2.287c-0.2,0.678 -0.488,1.286 -0.862,1.823c-0.375,0.537 -0.825,1.006 -1.351,1.408c-0.526,0.401 -1.115,0.748 -1.766,1.041l5.094,9.782l0,0.212l-4.899,0l-4.459,-8.854Zm-3.467,-3.711l3.385,0c1.291,0 2.287,-0.329 2.987,-0.985c0.7,-0.657 1.05,-1.554 1.05,-2.694c0,-1.183 -0.342,-2.102 -1.026,-2.759c-0.683,-0.656 -1.692,-0.984 -3.027,-0.984l-3.369,0l0,7.422Z" style="fill-rule:nonzero;"/><path d="M1664.09,1448.06l4.671,-10.921l5.029,0l-7.454,15.495l-0.017,8.203l-4.557,0l-0.016,-8.399l-7.341,-15.299l5.013,0l4.672,10.921Z" style="fill-rule:nonzero;"/><path d="M1701.67,1462.87l-4.215,0l8.87,-25.732l4.215,0l-8.87,25.732Z" style="fill-rule:nonzero;"/><path d="M1721.67,1462.87l-4.215,0l8.87,-25.732l4.216,0l-8.871,25.732Z" style="fill-rule:nonzero;"/><path d="M1764.44,1454.16l-3.272,0l-1.188,6.673l-2.913,0l1.188,-6.673l-3.711,0l0,-2.751l4.199,0l0.846,-4.72l-3.824,0l0,-2.783l4.313,0l1.22,-6.771l2.898,0l-1.205,6.771l3.272,0l1.204,-6.771l2.93,0l-1.221,6.771l3.532,0l0,2.783l-4.02,0l-0.847,4.72l3.63,0l0,2.751l-4.118,0l-1.188,6.673l-2.913,0l1.188,-6.673Zm-2.783,-2.751l3.271,0l0.83,-4.72l-3.271,0l-0.83,4.72Z" style="fill-rule:nonzero;"/><path d="M1775.92,1460.83l0,-23.698l6.136,0c1.574,0 2.998,0.268 4.273,0.805c1.275,0.538 2.365,1.286 3.271,2.247c0.906,0.96 1.606,2.107 2.1,3.442c0.494,1.335 0.741,2.799 0.741,4.394l0,1.954c0,1.595 -0.247,3.057 -0.741,4.386c-0.494,1.329 -1.185,2.474 -2.075,3.434c-0.89,0.961 -1.959,1.706 -3.207,2.238c-1.247,0.532 -2.625,0.798 -4.134,0.798l-6.364,0Zm4.606,-19.987l0,16.308l1.758,0c0.857,0 1.625,-0.162 2.303,-0.488c0.679,-0.325 1.254,-0.797 1.726,-1.416c0.472,-0.618 0.832,-1.37 1.082,-2.254c0.25,-0.885 0.374,-1.891 0.374,-3.019l0,-1.986c0,-1.063 -0.122,-2.032 -0.366,-2.905c-0.244,-0.874 -0.608,-1.625 -1.09,-2.255c-0.483,-0.629 -1.08,-1.117 -1.791,-1.464c-0.71,-0.348 -1.532,-0.521 -2.466,-0.521l-1.53,0Z" style="fill-rule:nonzero;"/><path d="M1811.66,1439.66l-9.229,21.175l-4.769,0l9.245,-20.004l-11.898,0l0,-3.694l16.651,0l0,2.523Z" style="fill-rule:nonzero;"/><path d="M1816.41,1449.16l1.351,-12.028l13.151,0l0,3.841l-9.424,0l-0.569,5.208c0.336,-0.195 0.813,-0.396 1.432,-0.602c0.618,-0.206 1.329,-0.309 2.132,-0.309c1.139,0 2.157,0.182 3.052,0.545c0.895,0.364 1.649,0.887 2.262,1.571c0.613,0.683 1.083,1.519 1.408,2.506c0.326,0.988 0.488,2.105 0.488,3.353c0,1.063 -0.157,2.073 -0.472,3.027c-0.314,0.955 -0.797,1.796 -1.448,2.523c-0.651,0.727 -1.47,1.302 -2.458,1.725c-0.987,0.424 -2.154,0.635 -3.499,0.635c-1.02,0 -2.005,-0.152 -2.954,-0.456c-0.95,-0.303 -1.793,-0.748 -2.531,-1.334c-0.738,-0.586 -1.338,-1.305 -1.799,-2.157c-0.461,-0.851 -0.708,-1.825 -0.74,-2.921l4.459,0c0.109,1.031 0.48,1.828 1.115,2.392c0.635,0.565 1.446,0.847 2.433,0.847c0.608,0 1.126,-0.114 1.555,-0.342c0.428,-0.228 0.776,-0.543 1.041,-0.944c0.266,-0.402 0.462,-0.879 0.586,-1.432c0.125,-0.554 0.188,-1.151 0.188,-1.791c0,-0.629 -0.079,-1.207 -0.236,-1.733c-0.158,-0.526 -0.399,-0.979 -0.725,-1.359c-0.325,-0.38 -0.732,-0.673 -1.22,-0.879c-0.489,-0.206 -1.064,-0.309 -1.726,-0.309c-0.445,0 -0.83,0.038 -1.155,0.114c-0.326,0.075 -0.613,0.173 -0.863,0.293c-0.249,0.119 -0.472,0.257 -0.667,0.415c-0.196,0.157 -0.38,0.322 -0.554,0.496l-3.613,-0.895Z" style="fill-rule:nonzero;"/><path d="M1847.68,1455.88l-7.112,0l-1.4,4.948l-4.818,0l7.764,-23.698l4.15,0l7.618,23.698l-4.818,0l-1.384,-4.948Zm-5.989,-3.89l4.915,0l-2.425,-8.724l-2.49,8.724Z" style="fill-rule:nonzero;"/><path d="M1856.42,1449.16l1.351,-12.028l13.151,0l0,3.841l-9.424,0l-0.57,5.208c0.336,-0.195 0.814,-0.396 1.432,-0.602c0.619,-0.206 1.33,-0.309 2.133,-0.309c1.139,0 2.156,0.182 3.051,0.545c0.896,0.364 1.65,0.887 2.263,1.571c0.613,0.683 1.082,1.519 1.408,2.506c0.325,0.988 0.488,2.105 0.488,3.353c0,1.063 -0.157,2.073 -0.472,3.027c-0.315,0.955 -0.798,1.796 -1.449,2.523c-0.651,0.727 -1.47,1.302 -2.457,1.725c-0.988,0.424 -2.154,0.635 -3.5,0.635c-1.02,0 -2.004,-0.152 -2.954,-0.456c-0.949,-0.303 -1.793,-0.748 -2.531,-1.334c-0.738,-0.586 -1.337,-1.305 -1.798,-2.157c-0.461,-0.851 -0.708,-1.825 -0.741,-2.921l4.46,0c0.108,1.031 0.48,1.828 1.115,2.392c0.634,0.565 1.446,0.847 2.433,0.847c0.608,0 1.126,-0.114 1.554,-0.342c0.429,-0.228 0.776,-0.543 1.042,-0.944c0.266,-0.402 0.461,-0.879 0.586,-1.432c0.125,-0.554 0.187,-1.151 0.187,-1.791c0,-0.629 -0.079,-1.207 -0.236,-1.733c-0.157,-0.526 -0.399,-0.979 -0.724,-1.359c-0.326,-0.38 -0.733,-0.673 -1.221,-0.879c-0.488,-0.206 -1.063,-0.309 -1.725,-0.309c-0.445,0 -0.83,0.038 -1.156,0.114c-0.325,0.075 -0.613,0.173 -0.862,0.293c-0.25,0.119 -0.472,0.257 -0.668,0.415c-0.195,0.157 -0.379,0.322 -0.553,0.496l-3.613,-0.895Z" style="fill-rule:nonzero;"/><path d="M1876.42,1449.16l1.351,-12.028l13.151,0l0,3.841l-9.424,0l-0.57,5.208c0.337,-0.195 0.814,-0.396 1.433,-0.602c0.618,-0.206 1.329,-0.309 2.132,-0.309c1.139,0 2.156,0.182 3.052,0.545c0.895,0.364 1.649,0.887 2.262,1.571c0.613,0.683 1.082,1.519 1.408,2.506c0.325,0.988 0.488,2.105 0.488,3.353c0,1.063 -0.157,2.073 -0.472,3.027c-0.315,0.955 -0.797,1.796 -1.448,2.523c-0.652,0.727 -1.471,1.302 -2.458,1.725c-0.988,0.424 -2.154,0.635 -3.499,0.635c-1.02,0 -2.005,-0.152 -2.955,-0.456c-0.949,-0.303 -1.793,-0.748 -2.531,-1.334c-0.737,-0.586 -1.337,-1.305 -1.798,-2.157c-0.461,-0.851 -0.708,-1.825 -0.741,-2.921l4.46,0c0.109,1.031 0.48,1.828 1.115,2.392c0.635,0.565 1.446,0.847 2.433,0.847c0.608,0 1.126,-0.114 1.555,-0.342c0.428,-0.228 0.775,-0.543 1.041,-0.944c0.266,-0.402 0.461,-0.879 0.586,-1.432c0.125,-0.554 0.187,-1.151 0.187,-1.791c0,-0.629 -0.078,-1.207 -0.236,-1.733c-0.157,-0.526 -0.398,-0.979 -0.724,-1.359c-0.325,-0.38 -0.732,-0.673 -1.221,-0.879c-0.488,-0.206 -1.063,-0.309 -1.725,-0.309c-0.445,0 -0.83,0.038 -1.155,0.114c-0.326,0.075 -0.614,0.173 -0.863,0.293c-0.25,0.119 -0.472,0.257 -0.667,0.415c-0.196,0.157 -0.38,0.322 -0.554,0.496l-3.613,-0.895Z" style="fill-rule:nonzero;"/><path d="M2432.31,1614.84l-3.467,0l0,8.854l-4.573,0l0,-23.698l7.942,0c1.313,0 2.501,0.155 3.565,0.464c1.063,0.309 1.972,0.762 2.726,1.359c0.754,0.597 1.335,1.34 1.742,2.23c0.406,0.889 0.61,1.92 0.61,3.092c0,0.847 -0.101,1.609 -0.301,2.287c-0.201,0.678 -0.489,1.286 -0.863,1.823c-0.374,0.537 -0.825,1.006 -1.351,1.408c-0.526,0.401 -1.115,0.748 -1.766,1.041l5.095,9.782l0,0.212l-4.899,0l-4.46,-8.854Zm-3.467,-3.711l3.386,0c1.291,0 2.286,-0.328 2.986,-0.985c0.7,-0.656 1.05,-1.554 1.05,-2.694c0,-1.182 -0.342,-2.102 -1.025,-2.758c-0.684,-0.657 -1.693,-0.985 -3.028,-0.985l-3.369,0l0,7.422Z" style="fill-rule:nonzero;"/><path d="M2443.82,1614.73c0,-1.281 0.185,-2.466 0.553,-3.556c0.369,-1.091 0.909,-2.038 1.62,-2.841c0.711,-0.803 1.579,-1.432 2.604,-1.888c1.026,-0.455 2.2,-0.683 3.524,-0.683c1.324,0 2.501,0.228 3.532,0.683c1.031,0.456 1.901,1.085 2.612,1.888c0.711,0.803 1.251,1.75 1.62,2.841c0.368,1.09 0.553,2.275 0.553,3.556l0,0.342c0,1.291 -0.185,2.482 -0.553,3.572c-0.369,1.091 -0.906,2.037 -1.612,2.84c-0.705,0.803 -1.573,1.43 -2.604,1.88c-1.031,0.451 -2.203,0.676 -3.516,0.676c-1.323,0 -2.503,-0.225 -3.54,-0.676c-1.036,-0.45 -1.909,-1.077 -2.62,-1.88c-0.711,-0.803 -1.251,-1.749 -1.62,-2.84c-0.368,-1.09 -0.553,-2.281 -0.553,-3.572l0,-0.342Zm4.525,0.342c0,0.737 0.07,1.429 0.211,2.075c0.141,0.645 0.364,1.21 0.668,1.693c0.304,0.482 0.697,0.865 1.18,1.147c0.483,0.282 1.066,0.423 1.749,0.423c0.662,0 1.232,-0.141 1.709,-0.423c0.478,-0.282 0.866,-0.665 1.164,-1.147c0.299,-0.483 0.518,-1.048 0.659,-1.693c0.141,-0.646 0.212,-1.338 0.212,-2.075l0,-0.342c0,-0.716 -0.071,-1.394 -0.212,-2.035c-0.141,-0.64 -0.36,-1.204 -0.659,-1.692c-0.298,-0.489 -0.686,-0.874 -1.164,-1.156c-0.477,-0.282 -1.058,-0.423 -1.741,-0.423c-0.673,0 -1.248,0.141 -1.725,0.423c-0.478,0.282 -0.868,0.667 -1.172,1.156c-0.304,0.488 -0.527,1.052 -0.668,1.692c-0.141,0.641 -0.211,1.319 -0.211,2.035l0,0.342Z" style="fill-rule:nonzero;"/><path d="M2480.31,1615.07c0,1.313 -0.144,2.517 -0.431,3.613c-0.288,1.096 -0.719,2.04 -1.294,2.832c-0.575,0.792 -1.292,1.408 -2.149,1.847c-0.857,0.44 -1.855,0.659 -2.995,0.659c-1.03,0 -1.923,-0.192 -2.677,-0.577c-0.754,-0.386 -1.402,-0.925 -1.945,-1.62l-0.211,1.872l-4.069,0l0,-25l4.524,0l0,8.984c0.521,-0.607 1.137,-1.079 1.848,-1.416c0.71,-0.336 1.543,-0.504 2.498,-0.504c1.15,0 2.157,0.222 3.019,0.667c0.863,0.445 1.582,1.063 2.157,1.856c0.575,0.792 1.006,1.738 1.294,2.84c0.287,1.101 0.431,2.303 0.431,3.605l0,0.342Zm-4.525,-0.342c0,-0.716 -0.054,-1.394 -0.163,-2.035c-0.108,-0.64 -0.295,-1.201 -0.561,-1.684c-0.266,-0.483 -0.627,-0.866 -1.082,-1.148c-0.456,-0.282 -1.026,-0.423 -1.709,-0.423c-0.825,0 -1.495,0.174 -2.01,0.521c-0.516,0.347 -0.915,0.825 -1.197,1.432l0,7.015c0.282,0.608 0.681,1.085 1.197,1.432c0.515,0.348 1.196,0.521 2.042,0.521c0.684,0 1.248,-0.133 1.693,-0.398c0.445,-0.266 0.8,-0.635 1.066,-1.107c0.266,-0.472 0.453,-1.031 0.561,-1.677c0.109,-0.645 0.163,-1.348 0.163,-2.107l0,-0.342Z" style="fill-rule:nonzero;"/><path d="M2483.82,1614.73c0,-1.281 0.184,-2.466 0.553,-3.556c0.369,-1.091 0.909,-2.038 1.619,-2.841c0.711,-0.803 1.579,-1.432 2.605,-1.888c1.025,-0.455 2.2,-0.683 3.523,-0.683c1.324,0 2.501,0.228 3.532,0.683c1.031,0.456 1.902,1.085 2.613,1.888c0.71,0.803 1.25,1.75 1.619,2.841c0.369,1.09 0.553,2.275 0.553,3.556l0,0.342c0,1.291 -0.184,2.482 -0.553,3.572c-0.369,1.091 -0.906,2.037 -1.611,2.84c-0.706,0.803 -1.574,1.43 -2.604,1.88c-1.031,0.451 -2.203,0.676 -3.516,0.676c-1.324,0 -2.504,-0.225 -3.54,-0.676c-1.036,-0.45 -1.91,-1.077 -2.621,-1.88c-0.71,-0.803 -1.25,-1.749 -1.619,-2.84c-0.369,-1.09 -0.553,-2.281 -0.553,-3.572l0,-0.342Zm4.524,0.342c0,0.737 0.071,1.429 0.212,2.075c0.141,0.645 0.363,1.21 0.667,1.693c0.304,0.482 0.697,0.865 1.18,1.147c0.483,0.282 1.066,0.423 1.75,0.423c0.662,0 1.232,-0.141 1.709,-0.423c0.477,-0.282 0.865,-0.665 1.164,-1.147c0.298,-0.483 0.518,-1.048 0.659,-1.693c0.141,-0.646 0.211,-1.338 0.211,-2.075l0,-0.342c0,-0.716 -0.07,-1.394 -0.211,-2.035c-0.141,-0.64 -0.361,-1.204 -0.659,-1.692c-0.299,-0.489 -0.687,-0.874 -1.164,-1.156c-0.477,-0.282 -1.058,-0.423 -1.742,-0.423c-0.672,0 -1.247,0.141 -1.725,0.423c-0.477,0.282 -0.868,0.667 -1.172,1.156c-0.304,0.488 -0.526,1.052 -0.667,1.692c-0.141,0.641 -0.212,1.319 -0.212,2.035l0,0.342Z" style="fill-rule:nonzero;"/><path d="M2512.74,1601.77l0,4.313l6.576,0l0,3.337l-6.576,0l0,7.568c0,0.64 0.073,1.175 0.22,1.603c0.146,0.429 0.355,0.771 0.626,1.026c0.272,0.255 0.6,0.437 0.985,0.545c0.385,0.109 0.817,0.163 1.294,0.163c0.347,0 0.703,-0.017 1.066,-0.049c0.364,-0.033 0.711,-0.073 1.042,-0.122c0.331,-0.049 0.64,-0.1 0.928,-0.155c0.287,-0.054 0.534,-0.108 0.74,-0.163l0.44,3.109c-0.315,0.185 -0.684,0.345 -1.107,0.48c-0.423,0.136 -0.874,0.247 -1.351,0.334c-0.477,0.087 -0.974,0.155 -1.489,0.203c-0.516,0.049 -1.023,0.074 -1.522,0.074c-0.966,0 -1.842,-0.128 -2.629,-0.383c-0.786,-0.255 -1.459,-0.651 -2.018,-1.188c-0.559,-0.537 -0.99,-1.221 -1.294,-2.051c-0.304,-0.83 -0.456,-1.825 -0.456,-2.986l0,-8.008l-4.02,0l0,-3.337l4.02,0l0,-4.313l4.525,0Z" style="fill-rule:nonzero;"/><path d="M2523.83,1614.73c0,-1.281 0.185,-2.466 0.554,-3.556c0.368,-1.091 0.908,-2.038 1.619,-2.841c0.711,-0.803 1.579,-1.432 2.604,-1.888c1.026,-0.455 2.2,-0.683 3.524,-0.683c1.324,0 2.501,0.228 3.532,0.683c1.031,0.456 1.901,1.085 2.612,1.888c0.711,0.803 1.251,1.75 1.62,2.841c0.369,1.09 0.553,2.275 0.553,3.556l0,0.342c0,1.291 -0.184,2.482 -0.553,3.572c-0.369,1.091 -0.906,2.037 -1.612,2.84c-0.705,0.803 -1.573,1.43 -2.604,1.88c-1.031,0.451 -2.203,0.676 -3.516,0.676c-1.323,0 -2.503,-0.225 -3.54,-0.676c-1.036,-0.45 -1.909,-1.077 -2.62,-1.88c-0.711,-0.803 -1.251,-1.749 -1.619,-2.84c-0.369,-1.09 -0.554,-2.281 -0.554,-3.572l0,-0.342Zm4.525,0.342c0,0.737 0.07,1.429 0.211,2.075c0.142,0.645 0.364,1.21 0.668,1.693c0.304,0.482 0.697,0.865 1.18,1.147c0.483,0.282 1.066,0.423 1.749,0.423c0.662,0 1.232,-0.141 1.709,-0.423c0.478,-0.282 0.866,-0.665 1.164,-1.147c0.299,-0.483 0.518,-1.048 0.659,-1.693c0.141,-0.646 0.212,-1.338 0.212,-2.075l0,-0.342c0,-0.716 -0.071,-1.394 -0.212,-2.035c-0.141,-0.64 -0.36,-1.204 -0.659,-1.692c-0.298,-0.489 -0.686,-0.874 -1.164,-1.156c-0.477,-0.282 -1.058,-0.423 -1.741,-0.423c-0.673,0 -1.248,0.141 -1.725,0.423c-0.478,0.282 -0.868,0.667 -1.172,1.156c-0.304,0.488 -0.526,1.052 -0.668,1.692c-0.141,0.641 -0.211,1.319 -0.211,2.035l0,0.342Z" style="fill-rule:nonzero;"/><path d="M2569.91,1600l2.246,8.903l2.555,-8.903l5.68,0l0,23.698l-4.199,0l0,-7.015l0.195,-11.084l-3.108,10.286l-2.263,0l-2.783,-9.847l0.195,10.645l0,7.015l-4.199,0l0,-23.698l5.681,0Z" style="fill-rule:nonzero;"/><path d="M2583.84,1614.73c0,-1.281 0.184,-2.466 0.553,-3.556c0.369,-1.091 0.909,-2.038 1.62,-2.841c0.71,-0.803 1.579,-1.432 2.604,-1.888c1.025,-0.455 2.2,-0.683 3.524,-0.683c1.323,0 2.501,0.228 3.532,0.683c1.03,0.456 1.901,1.085 2.612,1.888c0.711,0.803 1.25,1.75 1.619,2.841c0.369,1.09 0.554,2.275 0.554,3.556l0,0.342c0,1.291 -0.185,2.482 -0.554,3.572c-0.369,1.091 -0.906,2.037 -1.611,2.84c-0.705,0.803 -1.573,1.43 -2.604,1.88c-1.031,0.451 -2.203,0.676 -3.516,0.676c-1.324,0 -2.504,-0.225 -3.54,-0.676c-1.036,-0.45 -1.91,-1.077 -2.62,-1.88c-0.711,-0.803 -1.251,-1.749 -1.62,-2.84c-0.369,-1.09 -0.553,-2.281 -0.553,-3.572l0,-0.342Zm4.525,0.342c0,0.737 0.07,1.429 0.211,2.075c0.141,0.645 0.364,1.21 0.668,1.693c0.303,0.482 0.697,0.865 1.18,1.147c0.482,0.282 1.066,0.423 1.749,0.423c0.662,0 1.232,-0.141 1.709,-0.423c0.478,-0.282 0.866,-0.665 1.164,-1.147c0.298,-0.483 0.518,-1.048 0.659,-1.693c0.141,-0.646 0.212,-1.338 0.212,-2.075l0,-0.342c0,-0.716 -0.071,-1.394 -0.212,-2.035c-0.141,-0.64 -0.361,-1.204 -0.659,-1.692c-0.298,-0.489 -0.686,-0.874 -1.164,-1.156c-0.477,-0.282 -1.058,-0.423 -1.741,-0.423c-0.673,0 -1.248,0.141 -1.726,0.423c-0.477,0.282 -0.868,0.667 -1.171,1.156c-0.304,0.488 -0.527,1.052 -0.668,1.692c-0.141,0.641 -0.211,1.319 -0.211,2.035l0,0.342Z" style="fill-rule:nonzero;"/><path d="M2608.56,1606.09l0.277,2.442c0.629,-0.879 1.394,-1.56 2.295,-2.043c0.9,-0.483 1.899,-0.724 2.995,-0.724c0.889,0 1.703,0.13 2.441,0.39c0.738,0.261 1.375,0.676 1.912,1.245c0.538,0.57 0.955,1.303 1.254,2.198c0.298,0.895 0.447,1.983 0.447,3.263l0,10.84l-4.524,0l0,-10.775c0,-0.694 -0.079,-1.267 -0.236,-1.717c-0.158,-0.45 -0.383,-0.806 -0.676,-1.066c-0.293,-0.26 -0.646,-0.442 -1.058,-0.545c-0.412,-0.103 -0.879,-0.155 -1.4,-0.155c-0.77,0 -1.426,0.155 -1.969,0.464c-0.543,0.309 -0.982,0.735 -1.318,1.278l0,12.516l-4.541,0l0,-17.611l4.101,0Z" style="fill-rule:nonzero;"/><path d="M2623.84,1614.73c0,-1.281 0.185,-2.466 0.554,-3.556c0.369,-1.091 0.909,-2.038 1.619,-2.841c0.711,-0.803 1.579,-1.432 2.604,-1.888c1.026,-0.455 2.2,-0.683 3.524,-0.683c1.324,0 2.501,0.228 3.532,0.683c1.031,0.456 1.902,1.085 2.612,1.888c0.711,0.803 1.251,1.75 1.62,2.841c0.369,1.09 0.553,2.275 0.553,3.556l0,0.342c0,1.291 -0.184,2.482 -0.553,3.572c-0.369,1.091 -0.906,2.037 -1.611,2.84c-0.706,0.803 -1.574,1.43 -2.605,1.88c-1.03,0.451 -2.202,0.676 -3.515,0.676c-1.324,0 -2.504,-0.225 -3.54,-0.676c-1.037,-0.45 -1.91,-1.077 -2.621,-1.88c-0.71,-0.803 -1.25,-1.749 -1.619,-2.84c-0.369,-1.09 -0.554,-2.281 -0.554,-3.572l0,-0.342Zm4.525,0.342c0,0.737 0.071,1.429 0.212,2.075c0.141,0.645 0.363,1.21 0.667,1.693c0.304,0.482 0.697,0.865 1.18,1.147c0.483,0.282 1.066,0.423 1.75,0.423c0.662,0 1.231,-0.141 1.709,-0.423c0.477,-0.282 0.865,-0.665 1.163,-1.147c0.299,-0.483 0.519,-1.048 0.66,-1.693c0.141,-0.646 0.211,-1.338 0.211,-2.075l0,-0.342c0,-0.716 -0.07,-1.394 -0.211,-2.035c-0.141,-0.64 -0.361,-1.204 -0.66,-1.692c-0.298,-0.489 -0.686,-0.874 -1.163,-1.156c-0.478,-0.282 -1.058,-0.423 -1.742,-0.423c-0.673,0 -1.248,0.141 -1.725,0.423c-0.478,0.282 -0.868,0.667 -1.172,1.156c-0.304,0.488 -0.526,1.052 -0.667,1.692c-0.141,0.641 -0.212,1.319 -0.212,2.035l0,0.342Z" style="fill-rule:nonzero;"/><path d="M2669.97,1625.73l-4.216,0l8.871,-25.732l4.215,0l-8.87,25.732Z" style="fill-rule:nonzero;"/><path d="M2689.97,1625.73l-4.216,0l8.871,-25.732l4.215,0l-8.87,25.732Z" style="fill-rule:nonzero;"/><path d="M2724.28,1623.7l0,-23.698l7.959,0c1.291,0 2.466,0.13 3.524,0.391c1.058,0.26 1.961,0.656 2.71,1.188c0.748,0.531 1.326,1.204 1.733,2.018c0.407,0.814 0.61,1.774 0.61,2.881c-0.011,1.107 -0.306,2.099 -0.887,2.978c-0.58,0.879 -1.435,1.547 -2.563,2.002c0.683,0.174 1.275,0.434 1.774,0.782c0.499,0.347 0.914,0.756 1.245,1.228c0.331,0.472 0.575,0.988 0.732,1.547c0.158,0.558 0.236,1.136 0.236,1.733c0,1.139 -0.195,2.143 -0.586,3.011c-0.39,0.868 -0.949,1.595 -1.676,2.181c-0.727,0.586 -1.611,1.025 -2.653,1.318c-1.042,0.293 -2.213,0.44 -3.516,0.44l-8.642,0Zm4.59,-10.449l0,6.754l4.069,0c1.248,-0.011 2.2,-0.317 2.856,-0.919c0.657,-0.603 0.985,-1.392 0.985,-2.369c0.011,-1.085 -0.282,-1.931 -0.879,-2.539c-0.597,-0.607 -1.519,-0.916 -2.767,-0.927l-4.264,0Zm0,-3.304l3.401,0c1.27,-0.011 2.246,-0.277 2.93,-0.798c0.684,-0.521 1.031,-1.286 1.042,-2.295c0,-1.107 -0.342,-1.901 -1.026,-2.384c-0.683,-0.483 -1.671,-0.73 -2.962,-0.741l-3.385,0l0,6.218Z" style="fill-rule:nonzero;"/><path d="M2743.86,1614.73c0,-1.281 0.184,-2.466 0.553,-3.556c0.369,-1.091 0.909,-2.038 1.62,-2.841c0.711,-0.803 1.579,-1.432 2.604,-1.888c1.025,-0.455 2.2,-0.683 3.524,-0.683c1.323,0 2.501,0.228 3.532,0.683c1.03,0.456 1.901,1.085 2.612,1.888c0.711,0.803 1.25,1.75 1.619,2.841c0.369,1.09 0.554,2.275 0.554,3.556l0,0.342c0,1.291 -0.185,2.482 -0.554,3.572c-0.369,1.091 -0.906,2.037 -1.611,2.84c-0.705,0.803 -1.573,1.43 -2.604,1.88c-1.031,0.451 -2.203,0.676 -3.516,0.676c-1.324,0 -2.504,-0.225 -3.54,-0.676c-1.036,-0.45 -1.909,-1.077 -2.62,-1.88c-0.711,-0.803 -1.251,-1.749 -1.62,-2.84c-0.369,-1.09 -0.553,-2.281 -0.553,-3.572l0,-0.342Zm4.525,0.342c0,0.737 0.07,1.429 0.211,2.075c0.141,0.645 0.364,1.21 0.668,1.693c0.303,0.482 0.697,0.865 1.18,1.147c0.482,0.282 1.066,0.423 1.749,0.423c0.662,0 1.232,-0.141 1.709,-0.423c0.478,-0.282 0.866,-0.665 1.164,-1.147c0.298,-0.483 0.518,-1.048 0.659,-1.693c0.141,-0.646 0.212,-1.338 0.212,-2.075l0,-0.342c0,-0.716 -0.071,-1.394 -0.212,-2.035c-0.141,-0.64 -0.361,-1.204 -0.659,-1.692c-0.298,-0.489 -0.686,-0.874 -1.164,-1.156c-0.477,-0.282 -1.058,-0.423 -1.741,-0.423c-0.673,0 -1.248,0.141 -1.726,0.423c-0.477,0.282 -0.868,0.667 -1.171,1.156c-0.304,0.488 -0.527,1.052 -0.668,1.692c-0.141,0.641 -0.211,1.319 -0.211,2.035l0,0.342Z" style="fill-rule:nonzero;"/><path d="M2765.43,1598.7l9.847,0l0,21.322l5.045,0l0,3.678l-14.892,0l0,-3.678l5.273,0l0,-17.627l-5.273,0l0,-3.695Z" style="fill-rule:nonzero;"/><path d="M2784.02,1614.76c0,-1.334 0.155,-2.555 0.464,-3.662c0.309,-1.107 0.762,-2.056 1.359,-2.848c0.597,-0.792 1.321,-1.405 2.173,-1.839c0.851,-0.434 1.825,-0.651 2.921,-0.651c0.923,0 1.734,0.165 2.434,0.496c0.699,0.331 1.321,0.8 1.863,1.408l0,-8.968l4.541,0l0,25l-4.085,0l-0.228,-1.839c-0.553,0.683 -1.204,1.215 -1.953,1.595c-0.749,0.38 -1.617,0.569 -2.604,0.569c-1.075,0 -2.038,-0.225 -2.889,-0.675c-0.852,-0.45 -1.574,-1.072 -2.165,-1.864c-0.591,-0.792 -1.044,-1.733 -1.359,-2.824c-0.315,-1.09 -0.472,-2.275 -0.472,-3.556l0,-0.342Zm4.525,0.342c0,0.738 0.062,1.424 0.187,2.059c0.125,0.635 0.328,1.188 0.61,1.66c0.282,0.472 0.646,0.844 1.091,1.115c0.445,0.271 0.987,0.407 1.627,0.407c0.782,0 1.43,-0.168 1.945,-0.505c0.516,-0.336 0.925,-0.797 1.229,-1.383l0,-7.129c-0.304,-0.597 -0.711,-1.061 -1.221,-1.391c-0.51,-0.331 -1.15,-0.497 -1.92,-0.497c-0.64,0 -1.186,0.138 -1.636,0.415c-0.45,0.277 -0.816,0.657 -1.099,1.139c-0.282,0.483 -0.488,1.048 -0.618,1.693c-0.13,0.646 -0.195,1.338 -0.195,2.075l0,0.342Z" style="fill-rule:nonzero;"/><path d="M1549.57,1573.26l1.726,-14.274l4.199,0l-3.288,23.698l-4.134,0l-2.246,-13.997l-2.165,13.997l-4.134,0l-3.255,-23.698l4.183,0l1.693,14.177l2.018,-14.177l3.271,0l2.132,14.274Z" style="fill-rule:nonzero;"/><path d="M1573.62,1582.68l-4.524,0l0,-10.27l-6.706,0l0,10.27l-4.541,0l0,-23.698l4.541,0l0,9.717l6.706,0l0,-9.717l4.524,0l0,23.698Z" style="fill-rule:nonzero;"/><path d="M1579,1558.98l13.704,0l0,3.695l-4.622,0l0,16.325l4.622,0l0,3.678l-13.704,0l0,-3.678l4.508,0l0,-16.325l-4.508,0l0,-3.695Z" style="fill-rule:nonzero;"/><path d="M1615.4,1562.71l-7.308,0l0,19.971l-4.59,0l0,-19.971l-7.21,0l0,-3.727l19.108,0l0,3.727Z" style="fill-rule:nonzero;"/><path d="M1632.58,1572.3l-9.733,0l0,6.689l11.377,0l0,3.695l-15.967,0l0,-23.698l15.918,0l0,3.727l-11.328,0l0,5.974l9.733,0l0,3.613Z" style="fill-rule:nonzero;"/><path d="M1663.66,1584.71l-4.215,0l8.87,-25.733l4.216,0l-8.871,25.733Z" style="fill-rule:nonzero;"/><path d="M1683.67,1584.71l-4.216,0l8.871,-25.733l4.215,0l-8.87,25.733Z" style="fill-rule:nonzero;"/><path d="M1726.44,1576.01l-3.271,0l-1.188,6.673l-2.914,0l1.188,-6.673l-3.711,0l0,-2.751l4.2,0l0.846,-4.72l-3.825,0l0,-2.783l4.313,0l1.221,-6.771l2.897,0l-1.204,6.771l3.271,0l1.205,-6.771l2.929,0l-1.22,6.771l3.531,0l0,2.783l-4.02,0l-0.846,4.72l3.629,0l0,2.751l-4.117,0l-1.189,6.673l-2.913,0l1.188,-6.673Zm-2.783,-2.751l3.271,0l0.831,-4.72l-3.272,0l-0.83,4.72Z" style="fill-rule:nonzero;"/><path d="M1753.05,1572.87l-10.157,0l0,9.814l-4.59,0l0,-23.698l16.016,0l0,3.727l-11.426,0l0,6.446l10.157,0l0,3.711Z" style="fill-rule:nonzero;"/><path d="M1773.06,1572.87l-10.156,0l0,9.814l-4.59,0l0,-23.698l16.015,0l0,3.727l-11.425,0l0,6.446l10.156,0l0,3.711Z" style="fill-rule:nonzero;"/><path d="M1793.06,1572.87l-10.156,0l0,9.814l-4.59,0l0,-23.698l16.016,0l0,3.727l-11.426,0l0,6.446l10.156,0l0,3.711Z" style="fill-rule:nonzero;"/><path d="M1813.06,1572.87l-10.156,0l0,9.814l-4.59,0l0,-23.698l16.016,0l0,3.727l-11.426,0l0,6.446l10.156,0l0,3.711Z" style="fill-rule:nonzero;"/><path d="M1833.07,1572.87l-10.157,0l0,9.814l-4.59,0l0,-23.698l16.016,0l0,3.727l-11.426,0l0,6.446l10.157,0l0,3.711Z" style="fill-rule:nonzero;"/><path d="M1853.07,1572.87l-10.156,0l0,9.814l-4.59,0l0,-23.698l16.015,0l0,3.727l-11.425,0l0,6.446l10.156,0l0,3.711Z" style="fill-rule:nonzero;"/><path d="M1500,1410c0,-5.519 -4.481,-10 -10,-10l-80,0c-5.519,0 -10,4.481 -10,10l0,80c0,5.519 4.481,10 10,10l80,0c5.519,0 10,-4.481 10,-10l0,-80Z" style="fill:#dc5a54;"/><path d="M1500,1530c0,-5.519 -4.481,-10 -10,-10l-80,0c-5.519,0 -10,4.481 -10,10l0,80c0,5.519 4.481,10 10,10l80,0c5.519,0 10,-4.481 10,-10l0,-80Z" style="fill:#fff;"/><path d="M1500,1530c0,-5.519 -4.481,-10 -10,-10l-80,0c-5.519,0 -10,4.481 -10,10l0,80c0,5.519 4.481,10 10,10l80,0c5.519,0 10,-4.481 10,-10l0,-80Zm-5,0l0,80c0,2.76 -2.24,5 -5,5c0,0 -80,0 -80,0c-2.76,0 -5,-2.24 -5,-5l0,-80c0,-2.76 2.24,-5 5,-5c0,0 80,0 80,0c2.76,0 5,2.24 5,5Z" style="fill:#e7e7e7;"/><path d="M1536.27,1701l0,-23.698l7.959,0c1.291,0 2.466,0.13 3.524,0.39c1.058,0.261 1.961,0.657 2.71,1.188c0.748,0.532 1.326,1.205 1.733,2.019c0.407,0.813 0.61,1.774 0.61,2.881c-0.01,1.106 -0.306,2.099 -0.887,2.978c-0.58,0.879 -1.435,1.546 -2.563,2.002c0.683,0.174 1.275,0.434 1.774,0.781c0.499,0.347 0.914,0.757 1.245,1.229c0.331,0.472 0.575,0.988 0.732,1.546c0.158,0.559 0.236,1.137 0.236,1.734c0,1.139 -0.195,2.143 -0.585,3.011c-0.391,0.868 -0.95,1.595 -1.677,2.181c-0.727,0.586 -1.611,1.025 -2.653,1.318c-1.042,0.293 -2.213,0.44 -3.516,0.44l-8.642,0Zm4.59,-10.45l0,6.755l4.069,0c1.248,-0.011 2.2,-0.317 2.856,-0.92c0.657,-0.602 0.985,-1.391 0.985,-2.368c0.011,-1.085 -0.282,-1.931 -0.879,-2.539c-0.597,-0.608 -1.519,-0.917 -2.767,-0.928l-4.264,0Zm0,-3.304l3.401,0c1.27,-0.011 2.247,-0.276 2.93,-0.797c0.684,-0.521 1.031,-1.286 1.042,-2.295c0,-1.107 -0.342,-1.902 -1.026,-2.385c-0.683,-0.482 -1.671,-0.729 -2.962,-0.74l-3.385,0l0,6.217Z" style="fill-rule:nonzero;"/><path d="M1561.21,1697.31l11.1,0l0,3.695l-15.69,0l0,-23.698l4.59,0l0,20.003Z" style="fill-rule:nonzero;"/><path d="M1587.96,1696.06l-7.113,0l-1.4,4.948l-4.817,0l7.763,-23.698l4.151,0l7.617,23.698l-4.818,0l-1.383,-4.948Zm-5.99,-3.89l4.915,0l-2.425,-8.724l-2.49,8.724Z" style="fill-rule:nonzero;"/><path d="M1612.77,1693.58c-0.076,1.193 -0.333,2.268 -0.773,3.222c-0.439,0.955 -1.028,1.769 -1.766,2.442c-0.738,0.673 -1.617,1.191 -2.636,1.554c-1.02,0.364 -2.149,0.545 -3.386,0.545c-1.4,0 -2.642,-0.257 -3.727,-0.773c-1.085,-0.515 -1.997,-1.237 -2.734,-2.164c-0.738,-0.928 -1.303,-2.043 -1.693,-3.345c-0.391,-1.302 -0.586,-2.735 -0.586,-4.297l0,-3.19c0,-1.573 0.206,-3.011 0.618,-4.313c0.413,-1.302 0.999,-2.42 1.758,-3.353c0.76,-0.933 1.679,-1.658 2.759,-2.173c1.08,-0.515 2.292,-0.773 3.638,-0.773c1.302,0 2.46,0.184 3.475,0.553c1.014,0.369 1.879,0.895 2.596,1.579c0.716,0.684 1.28,1.519 1.692,2.507c0.413,0.987 0.673,2.099 0.782,3.336l-4.558,0c-0.043,-0.705 -0.149,-1.324 -0.317,-1.855c-0.168,-0.532 -0.412,-0.974 -0.733,-1.327c-0.32,-0.352 -0.721,-0.618 -1.204,-0.797c-0.483,-0.179 -1.061,-0.269 -1.733,-0.269c-0.706,0 -1.319,0.152 -1.84,0.456c-0.52,0.304 -0.952,0.749 -1.293,1.334c-0.342,0.586 -0.595,1.305 -0.757,2.157c-0.163,0.852 -0.244,1.82 -0.244,2.905l0,3.223c0,2.333 0.328,4.058 0.984,5.176c0.657,1.117 1.696,1.676 3.117,1.676c1.194,0 2.138,-0.317 2.832,-0.952c0.695,-0.635 1.08,-1.663 1.156,-3.084l4.573,0Z" style="fill-rule:nonzero;"/><path d="M1623.38,1691.27l-2.506,2.75l0,6.983l-4.59,0l0,-23.698l4.59,0l0,10.856l2.148,-2.897l5.762,-7.959l5.599,0l-7.975,10.481l8.268,13.217l-5.436,0l-5.86,-9.733Z" style="fill-rule:nonzero;"/><path d="M1661.99,1703.04l-4.215,0l8.87,-25.732l4.216,0l-8.871,25.732Z" style="fill-rule:nonzero;"/><path d="M1681.99,1703.04l-4.215,0l8.87,-25.732l4.216,0l-8.871,25.732Z" style="fill-rule:nonzero;"/><path d="M1724.76,1694.33l-3.272,0l-1.188,6.674l-2.913,0l1.188,-6.674l-3.711,0l0,-2.75l4.199,0l0.846,-4.72l-3.824,0l0,-2.783l4.313,0l1.22,-6.771l2.898,0l-1.205,6.771l3.272,0l1.204,-6.771l2.93,0l-1.221,6.771l3.532,0l0,2.783l-4.02,0l-0.847,4.72l3.63,0l0,2.75l-4.118,0l-1.188,6.674l-2.913,0l1.188,-6.674Zm-2.783,-2.75l3.271,0l0.83,-4.72l-3.271,0l-0.83,4.72Z" style="fill-rule:nonzero;"/><path d="M1751.93,1691.99c0,1.53 -0.176,2.878 -0.529,4.044c-0.352,1.167 -0.859,2.143 -1.521,2.93c-0.662,0.787 -1.471,1.381 -2.425,1.782c-0.955,0.402 -2.03,0.602 -3.223,0.602c-1.183,0 -2.252,-0.2 -3.206,-0.602c-0.955,-0.401 -1.766,-0.995 -2.434,-1.782c-0.667,-0.787 -1.182,-1.763 -1.546,-2.93c-0.363,-1.166 -0.545,-2.514 -0.545,-4.044l0,-5.664c0,-1.53 0.179,-2.879 0.537,-4.045c0.358,-1.166 0.871,-2.143 1.538,-2.93c0.667,-0.786 1.476,-1.38 2.425,-1.782c0.95,-0.401 2.016,-0.602 3.198,-0.602c1.194,0 2.268,0.201 3.223,0.602c0.955,0.402 1.766,0.996 2.433,1.782c0.668,0.787 1.18,1.764 1.538,2.93c0.358,1.166 0.537,2.515 0.537,4.045l0,5.664Zm-10.872,-1.953l6.315,-4.704c-0.032,-1.595 -0.309,-2.778 -0.83,-3.548c-0.521,-0.771 -1.302,-1.156 -2.344,-1.156c-1.052,0 -1.839,0.407 -2.36,1.221c-0.521,0.814 -0.781,2.067 -0.781,3.759l0,4.428Zm6.315,-1.628l-6.315,4.687c0.054,1.563 0.342,2.721 0.863,3.475c0.521,0.755 1.291,1.132 2.311,1.132c1.063,0 1.853,-0.413 2.368,-1.237c0.515,-0.825 0.773,-2.089 0.773,-3.793l0,-4.264Z" style="fill-rule:nonzero;"/><path d="M1771.93,1691.99c0,1.53 -0.177,2.878 -0.529,4.044c-0.353,1.167 -0.86,2.143 -1.522,2.93c-0.662,0.787 -1.47,1.381 -2.425,1.782c-0.955,0.402 -2.029,0.602 -3.223,0.602c-1.183,0 -2.251,-0.2 -3.206,-0.602c-0.955,-0.401 -1.766,-0.995 -2.433,-1.782c-0.668,-0.787 -1.183,-1.763 -1.547,-2.93c-0.363,-1.166 -0.545,-2.514 -0.545,-4.044l0,-5.664c0,-1.53 0.179,-2.879 0.537,-4.045c0.358,-1.166 0.871,-2.143 1.538,-2.93c0.668,-0.786 1.476,-1.38 2.425,-1.782c0.95,-0.401 2.016,-0.602 3.199,-0.602c1.193,0 2.267,0.201 3.222,0.602c0.955,0.402 1.766,0.996 2.434,1.782c0.667,0.787 1.18,1.764 1.538,2.93c0.358,1.166 0.537,2.515 0.537,4.045l0,5.664Zm-10.873,-1.953l6.315,-4.704c-0.032,-1.595 -0.309,-2.778 -0.83,-3.548c-0.52,-0.771 -1.302,-1.156 -2.343,-1.156c-1.053,0 -1.84,0.407 -2.36,1.221c-0.521,0.814 -0.782,2.067 -0.782,3.759l0,4.428Zm6.315,-1.628l-6.315,4.687c0.055,1.563 0.342,2.721 0.863,3.475c0.521,0.755 1.291,1.132 2.311,1.132c1.064,0 1.853,-0.413 2.368,-1.237c0.516,-0.825 0.773,-2.089 0.773,-3.793l0,-4.264Z" style="fill-rule:nonzero;"/><path d="M1791.93,1691.99c0,1.53 -0.176,2.878 -0.529,4.044c-0.353,1.167 -0.86,2.143 -1.522,2.93c-0.662,0.787 -1.47,1.381 -2.425,1.782c-0.955,0.402 -2.029,0.602 -3.223,0.602c-1.182,0 -2.251,-0.2 -3.206,-0.602c-0.955,-0.401 -1.766,-0.995 -2.433,-1.782c-0.668,-0.787 -1.183,-1.763 -1.546,-2.93c-0.364,-1.166 -0.546,-2.514 -0.546,-4.044l0,-5.664c0,-1.53 0.179,-2.879 0.537,-4.045c0.358,-1.166 0.871,-2.143 1.538,-2.93c0.668,-0.786 1.476,-1.38 2.426,-1.782c0.949,-0.401 2.015,-0.602 3.198,-0.602c1.193,0 2.268,0.201 3.223,0.602c0.954,0.402 1.765,0.996 2.433,1.782c0.667,0.787 1.18,1.764 1.538,2.93c0.358,1.166 0.537,2.515 0.537,4.045l0,5.664Zm-10.872,-1.953l6.315,-4.704c-0.033,-1.595 -0.31,-2.778 -0.83,-3.548c-0.521,-0.771 -1.302,-1.156 -2.344,-1.156c-1.053,0 -1.839,0.407 -2.36,1.221c-0.521,0.814 -0.781,2.067 -0.781,3.759l0,4.428Zm6.315,-1.628l-6.315,4.687c0.054,1.563 0.341,2.721 0.862,3.475c0.521,0.755 1.291,1.132 2.311,1.132c1.064,0 1.853,-0.413 2.369,-1.237c0.515,-0.825 0.773,-2.089 0.773,-3.793l0,-4.264Z" style="fill-rule:nonzero;"/><path d="M1811.94,1691.99c0,1.53 -0.176,2.878 -0.529,4.044c-0.352,1.167 -0.86,2.143 -1.522,2.93c-0.661,0.787 -1.47,1.381 -2.425,1.782c-0.955,0.402 -2.029,0.602 -3.222,0.602c-1.183,0 -2.252,-0.2 -3.207,-0.602c-0.955,-0.401 -1.766,-0.995 -2.433,-1.782c-0.667,-0.787 -1.183,-1.763 -1.546,-2.93c-0.364,-1.166 -0.545,-2.514 -0.545,-4.044l0,-5.664c0,-1.53 0.179,-2.879 0.537,-4.045c0.358,-1.166 0.87,-2.143 1.538,-2.93c0.667,-0.786 1.475,-1.38 2.425,-1.782c0.949,-0.401 2.015,-0.602 3.198,-0.602c1.194,0 2.268,0.201 3.223,0.602c0.955,0.402 1.766,0.996 2.433,1.782c0.667,0.787 1.18,1.764 1.538,2.93c0.358,1.166 0.537,2.515 0.537,4.045l0,5.664Zm-10.872,-1.953l6.315,-4.704c-0.033,-1.595 -0.309,-2.778 -0.83,-3.548c-0.521,-0.771 -1.302,-1.156 -2.344,-1.156c-1.052,0 -1.839,0.407 -2.36,1.221c-0.521,0.814 -0.781,2.067 -0.781,3.759l0,4.428Zm6.315,-1.628l-6.315,4.687c0.054,1.563 0.342,2.721 0.862,3.475c0.521,0.755 1.292,1.132 2.312,1.132c1.063,0 1.852,-0.413 2.368,-1.237c0.515,-0.825 0.773,-2.089 0.773,-3.793l0,-4.264Z" style="fill-rule:nonzero;"/><path d="M1831.94,1691.99c0,1.53 -0.176,2.878 -0.528,4.044c-0.353,1.167 -0.86,2.143 -1.522,2.93c-0.662,0.787 -1.471,1.381 -2.425,1.782c-0.955,0.402 -2.03,0.602 -3.223,0.602c-1.183,0 -2.252,-0.2 -3.206,-0.602c-0.955,-0.401 -1.766,-0.995 -2.434,-1.782c-0.667,-0.787 -1.182,-1.763 -1.546,-2.93c-0.363,-1.166 -0.545,-2.514 -0.545,-4.044l0,-5.664c0,-1.53 0.179,-2.879 0.537,-4.045c0.358,-1.166 0.871,-2.143 1.538,-2.93c0.667,-0.786 1.476,-1.38 2.425,-1.782c0.95,-0.401 2.016,-0.602 3.198,-0.602c1.194,0 2.268,0.201 3.223,0.602c0.955,0.402 1.766,0.996 2.433,1.782c0.668,0.787 1.18,1.764 1.538,2.93c0.358,1.166 0.537,2.515 0.537,4.045l0,5.664Zm-10.872,-1.953l6.315,-4.704c-0.032,-1.595 -0.309,-2.778 -0.83,-3.548c-0.521,-0.771 -1.302,-1.156 -2.344,-1.156c-1.052,0 -1.839,0.407 -2.36,1.221c-0.52,0.814 -0.781,2.067 -0.781,3.759l0,4.428Zm6.315,-1.628l-6.315,4.687c0.054,1.563 0.342,2.721 0.863,3.475c0.521,0.755 1.291,1.132 2.311,1.132c1.063,0 1.853,-0.413 2.368,-1.237c0.515,-0.825 0.773,-2.089 0.773,-3.793l0,-4.264Z" style="fill-rule:nonzero;"/><path d="M1851.94,1691.99c0,1.53 -0.177,2.878 -0.529,4.044c-0.353,1.167 -0.86,2.143 -1.522,2.93c-0.662,0.787 -1.47,1.381 -2.425,1.782c-0.955,0.402 -2.029,0.602 -3.223,0.602c-1.183,0 -2.251,-0.2 -3.206,-0.602c-0.955,-0.401 -1.766,-0.995 -2.433,-1.782c-0.668,-0.787 -1.183,-1.763 -1.547,-2.93c-0.363,-1.166 -0.545,-2.514 -0.545,-4.044l0,-5.664c0,-1.53 0.179,-2.879 0.537,-4.045c0.358,-1.166 0.871,-2.143 1.538,-2.93c0.668,-0.786 1.476,-1.38 2.425,-1.782c0.95,-0.401 2.016,-0.602 3.199,-0.602c1.193,0 2.267,0.201 3.222,0.602c0.955,0.402 1.766,0.996 2.434,1.782c0.667,0.787 1.18,1.764 1.538,2.93c0.358,1.166 0.537,2.515 0.537,4.045l0,5.664Zm-10.873,-1.953l6.315,-4.704c-0.032,-1.595 -0.309,-2.778 -0.83,-3.548c-0.52,-0.771 -1.302,-1.156 -2.343,-1.156c-1.053,0 -1.84,0.407 -2.36,1.221c-0.521,0.814 -0.782,2.067 -0.782,3.759l0,4.428Zm6.315,-1.628l-6.315,4.687c0.055,1.563 0.342,2.721 0.863,3.475c0.521,0.755 1.291,1.132 2.311,1.132c1.064,0 1.853,-0.413 2.368,-1.237c0.516,-0.825 0.773,-2.089 0.773,-3.793l0,-4.264Z" style="fill-rule:nonzero;"/><path d="M1500,1650c0,-5.519 -4.481,-10 -10,-10l-80,0c-5.519,0 -10,4.481 -10,10l0,80c0,5.519 4.481,10 10,10l80,0c5.519,0 10,-4.481 10,-10l0,-80Z"/></svg>